# vtk DataFile Version 2.0
Beam Convergence Test - 32 Elements
ASCII
DATASET UNSTRUCTURED_GRID
POINTS 33 float
  0.000000e+00   0.000000e+00   0.000000e+00
  3.125000e-01   0.000000e+00   0.000000e+00
  6.250000e-01   0.000000e+00   0.000000e+00
  9.375000e-01   0.000000e+00   0.000000e+00
  1.250000e+00   0.000000e+00   0.000000e+00
  1.562500e+00   0.000000e+00   0.000000e+00
  1.875000e+00   0.000000e+00   0.000000e+00
  2.187500e+00   0.000000e+00   0.000000e+00
  2.500000e+00   0.000000e+00   0.000000e+00
  2.812500e+00   0.000000e+00   0.000000e+00
  3.125000e+00   0.000000e+00   0.000000e+00
  3.437500e+00   0.000000e+00   0.000000e+00
  3.750000e+00   0.000000e+00   0.000000e+00
  4.062500e+00   0.000000e+00   0.000000e+00
  4.375000e+00   0.000000e+00   0.000000e+00
  4.687500e+00   0.000000e+00   0.000000e+00
  5.000000e+00   0.000000e+00   0.000000e+00
  5.312500e+00   0.000000e+00   0.000000e+00
  5.625000e+00   0.000000e+00   0.000000e+00
  5.937500e+00   0.000000e+00   0.000000e+00
  6.250000e+00   0.000000e+00   0.000000e+00
  6.562500e+00   0.000000e+00   0.000000e+00
  6.875000e+00   0.000000e+00   0.000000e+00
  7.187500e+00   0.000000e+00   0.000000e+00
  7.500000e+00   0.000000e+00   0.000000e+00
  7.812500e+00   0.000000e+00   0.000000e+00
  8.125000e+00   0.000000e+00   0.000000e+00
  8.437500e+00   0.000000e+00   0.000000e+00
  8.750000e+00   0.000000e+00   0.000000e+00
  9.062500e+00   0.000000e+00   0.000000e+00
  9.375000e+00   0.000000e+00   0.000000e+00
  9.687500e+00   0.000000e+00   0.000000e+00
  1.000000e+01   0.000000e+00   0.000000e+00

CELLS 32 96
2 0 1
2 1 2
2 2 3
2 3 4
2 4 5
2 5 6
2 6 7
2 7 8
2 8 9
2 9 10
2 10 11
2 11 12
2 12 13
2 13 14
2 14 15
2 15 16
2 16 17
2 17 18
2 18 19
2 19 20
2 20 21
2 21 22
2 22 23
2 23 24
2 24 25
2 25 26
2 26 27
2 27 28
2 28 29
2 29 30
2 30 31
2 31 32

CELL_TYPES 32
3
3
3
3
3
3
3
3
3
3
3
3
3
3
3
3
3
3
3
3
3
3
3
3
3
3
3
3
3
3
3
3

POINT_DATA 33
VECTORS Displacement float
  0.000000e+00   0.000000e+00   0.000000e+00
  0.000000e+00  -2.899290e-05  -1.845780e-04
  0.000000e+00  -1.147510e-04  -3.632960e-04
  0.000000e+00  -2.554420e-04  -5.361540e-04
  0.000000e+00  -4.492370e-04  -7.031530e-04
  0.000000e+00  -6.943030e-04  -8.642920e-04
  0.000000e+00  -9.888090e-04  -1.019570e-03
  0.000000e+00  -1.330920e-03  -1.168990e-03
  0.000000e+00  -1.718820e-03  -1.312550e-03
  0.000000e+00  -2.150660e-03  -1.450250e-03
  0.000000e+00  -2.624620e-03  -1.582090e-03
  0.000000e+00  -3.138860e-03  -1.708080e-03
  0.000000e+00  -3.691550e-03  -1.828200e-03
  0.000000e+00  -4.280870e-03  -1.942460e-03
  0.000000e+00  -4.904980e-03  -2.050860e-03
  0.000000e+00  -5.562050e-03  -2.153410e-03
  0.000000e+00  -6.250250e-03  -2.250090e-03
  0.000000e+00  -6.967750e-03  -2.340910e-03
  0.000000e+00  -7.712710e-03  -2.425880e-03
  0.000000e+00  -8.483310e-03  -2.504980e-03
  0.000000e+00  -9.277710e-03  -2.578230e-03
  0.000000e+00  -1.009410e-02  -2.645610e-03
  0.000000e+00  -1.093060e-02  -2.707140e-03
  0.000000e+00  -1.178540e-02  -2.762810e-03
  0.000000e+00  -1.265680e-02  -2.812610e-03
  0.000000e+00  -1.354270e-02  -2.856560e-03
  0.000000e+00  -1.444150e-02  -2.894650e-03
  0.000000e+00  -1.535130e-02  -2.926870e-03
  0.000000e+00  -1.627020e-02  -2.953240e-03
  0.000000e+00  -1.719640e-02  -2.973750e-03
  0.000000e+00  -1.812820e-02  -2.988400e-03
  0.000000e+00  -1.906360e-02  -2.997190e-03
  0.000000e+00  -2.000080e-02  -3.000120e-03

CELL_DATA 32
SCALARS Axial_Stress float 1
LOOKUP_TABLE default
  0.000000e+00
  0.000000e+00
  0.000000e+00
  0.000000e+00
  0.000000e+00
  0.000000e+00
  0.000000e+00
  0.000000e+00
  0.000000e+00
  0.000000e+00
  0.000000e+00
  0.000000e+00
  0.000000e+00
  0.000000e+00
  0.000000e+00
  0.000000e+00
  0.000000e+00
  0.000000e+00
  0.000000e+00
  0.000000e+00
  0.000000e+00
  0.000000e+00
  0.000000e+00
  0.000000e+00
  0.000000e+00
  0.000000e+00
  0.000000e+00
  0.000000e+00
  0.000000e+00
  0.000000e+00
  0.000000e+00
  0.000000e+00
SCALARS Bend_Stress1 float 1
LOOKUP_TABLE default
  1.200050e+08
  1.162550e+08
  1.125050e+08
  1.087540e+08
  1.050040e+08
  1.012540e+08
  9.750390e+07
  9.375380e+07
  9.000360e+07
  8.625350e+07
  8.250330e+07
  7.875320e+07
  7.500300e+07
  7.125290e+07
  6.750270e+07
  6.375260e+07
  6.000240e+07
  5.625230e+07
  5.250210e+07
  4.875200e+07
  4.500180e+07
  4.125170e+07
  3.750150e+07
  3.375140e+07
  3.000120e+07
  2.625110e+07
  2.250090e+07
  1.875080e+07
  1.500060e+07
  1.125050e+07
  7.500300e+06
  3.750150e+06
SCALARS Bend_Stress2 float 1
LOOKUP_TABLE default
 -1.162550e+08
 -1.125050e+08
 -1.087540e+08
 -1.050040e+08
 -1.012540e+08
 -9.750390e+07
 -9.375380e+07
 -9.000360e+07
 -8.625350e+07
 -8.250330e+07
 -7.875320e+07
 -7.500300e+07
 -7.125290e+07
 -6.750270e+07
 -6.375260e+07
 -6.000240e+07
 -5.625230e+07
 -5.250210e+07
 -4.875200e+07
 -4.500180e+07
 -4.125170e+07
 -3.750150e+07
 -3.375140e+07
 -3.000120e+07
 -2.625110e+07
 -2.250090e+07
 -1.875080e+07
 -1.500060e+07
 -1.125050e+07
 -7.500300e+06
 -3.750150e+06
  5.417890e-05
