# vtk DataFile Version 2.0
Plate Convergence Test - 16x4 Mesh
ASCII
DATASET UNSTRUCTURED_GRID
POINTS 85 float
  0.000000e+00   0.000000e+00   0.000000e+00
  0.000000e+00   2.500000e-01   0.000000e+00
  0.000000e+00   5.000000e-01   0.000000e+00
  0.000000e+00   7.500000e-01   0.000000e+00
  0.000000e+00   1.000000e+00   0.000000e+00
  6.250000e-01   0.000000e+00   0.000000e+00
  6.250000e-01   2.500000e-01   0.000000e+00
  6.250000e-01   5.000000e-01   0.000000e+00
  6.250000e-01   7.500000e-01   0.000000e+00
  6.250000e-01   1.000000e+00   0.000000e+00
  1.250000e+00   0.000000e+00   0.000000e+00
  1.250000e+00   2.500000e-01   0.000000e+00
  1.250000e+00   5.000000e-01   0.000000e+00
  1.250000e+00   7.500000e-01   0.000000e+00
  1.250000e+00   1.000000e+00   0.000000e+00
  1.875000e+00   0.000000e+00   0.000000e+00
  1.875000e+00   2.500000e-01   0.000000e+00
  1.875000e+00   5.000000e-01   0.000000e+00
  1.875000e+00   7.500000e-01   0.000000e+00
  1.875000e+00   1.000000e+00   0.000000e+00
  2.500000e+00   0.000000e+00   0.000000e+00
  2.500000e+00   2.500000e-01   0.000000e+00
  2.500000e+00   5.000000e-01   0.000000e+00
  2.500000e+00   7.500000e-01   0.000000e+00
  2.500000e+00   1.000000e+00   0.000000e+00
  3.125000e+00   0.000000e+00   0.000000e+00
  3.125000e+00   2.500000e-01   0.000000e+00
  3.125000e+00   5.000000e-01   0.000000e+00
  3.125000e+00   7.500000e-01   0.000000e+00
  3.125000e+00   1.000000e+00   0.000000e+00
  3.750000e+00   0.000000e+00   0.000000e+00
  3.750000e+00   2.500000e-01   0.000000e+00
  3.750000e+00   5.000000e-01   0.000000e+00
  3.750000e+00   7.500000e-01   0.000000e+00
  3.750000e+00   1.000000e+00   0.000000e+00
  4.375000e+00   0.000000e+00   0.000000e+00
  4.375000e+00   2.500000e-01   0.000000e+00
  4.375000e+00   5.000000e-01   0.000000e+00
  4.375000e+00   7.500000e-01   0.000000e+00
  4.375000e+00   1.000000e+00   0.000000e+00
  5.000000e+00   0.000000e+00   0.000000e+00
  5.000000e+00   2.500000e-01   0.000000e+00
  5.000000e+00   5.000000e-01   0.000000e+00
  5.000000e+00   7.500000e-01   0.000000e+00
  5.000000e+00   1.000000e+00   0.000000e+00
  5.625000e+00   0.000000e+00   0.000000e+00
  5.625000e+00   2.500000e-01   0.000000e+00
  5.625000e+00   5.000000e-01   0.000000e+00
  5.625000e+00   7.500000e-01   0.000000e+00
  5.625000e+00   1.000000e+00   0.000000e+00
  6.250000e+00   0.000000e+00   0.000000e+00
  6.250000e+00   2.500000e-01   0.000000e+00
  6.250000e+00   5.000000e-01   0.000000e+00
  6.250000e+00   7.500000e-01   0.000000e+00
  6.250000e+00   1.000000e+00   0.000000e+00
  6.875000e+00   0.000000e+00   0.000000e+00
  6.875000e+00   2.500000e-01   0.000000e+00
  6.875000e+00   5.000000e-01   0.000000e+00
  6.875000e+00   7.500000e-01   0.000000e+00
  6.875000e+00   1.000000e+00   0.000000e+00
  7.500000e+00   0.000000e+00   0.000000e+00
  7.500000e+00   2.500000e-01   0.000000e+00
  7.500000e+00   5.000000e-01   0.000000e+00
  7.500000e+00   7.500000e-01   0.000000e+00
  7.500000e+00   1.000000e+00   0.000000e+00
  8.125000e+00   0.000000e+00   0.000000e+00
  8.125000e+00   2.500000e-01   0.000000e+00
  8.125000e+00   5.000000e-01   0.000000e+00
  8.125000e+00   7.500000e-01   0.000000e+00
  8.125000e+00   1.000000e+00   0.000000e+00
  8.750000e+00   0.000000e+00   0.000000e+00
  8.750000e+00   2.500000e-01   0.000000e+00
  8.750000e+00   5.000000e-01   0.000000e+00
  8.750000e+00   7.500000e-01   0.000000e+00
  8.750000e+00   1.000000e+00   0.000000e+00
  9.375000e+00   0.000000e+00   0.000000e+00
  9.375000e+00   2.500000e-01   0.000000e+00
  9.375000e+00   5.000000e-01   0.000000e+00
  9.375000e+00   7.500000e-01   0.000000e+00
  9.375000e+00   1.000000e+00   0.000000e+00
  1.000000e+01   0.000000e+00   0.000000e+00
  1.000000e+01   2.500000e-01   0.000000e+00
  1.000000e+01   5.000000e-01   0.000000e+00
  1.000000e+01   7.500000e-01   0.000000e+00
  1.000000e+01   1.000000e+00   0.000000e+00

CELLS 64 320
4 0 5 6 1
4 1 6 7 2
4 2 7 8 3
4 3 8 9 4
4 5 10 11 6
4 6 11 12 7
4 7 12 13 8
4 8 13 14 9
4 10 15 16 11
4 11 16 17 12
4 12 17 18 13
4 13 18 19 14
4 15 20 21 16
4 16 21 22 17
4 17 22 23 18
4 18 23 24 19
4 20 25 26 21
4 21 26 27 22
4 22 27 28 23
4 23 28 29 24
4 25 30 31 26
4 26 31 32 27
4 27 32 33 28
4 28 33 34 29
4 30 35 36 31
4 31 36 37 32
4 32 37 38 33
4 33 38 39 34
4 35 40 41 36
4 36 41 42 37
4 37 42 43 38
4 38 43 44 39
4 40 45 46 41
4 41 46 47 42
4 42 47 48 43
4 43 48 49 44
4 45 50 51 46
4 46 51 52 47
4 47 52 53 48
4 48 53 54 49
4 50 55 56 51
4 51 56 57 52
4 52 57 58 53
4 53 58 59 54
4 55 60 61 56
4 56 61 62 57
4 57 62 63 58
4 58 63 64 59
4 60 65 66 61
4 61 66 67 62
4 62 67 68 63
4 63 68 69 64
4 65 70 71 66
4 66 71 72 67
4 67 72 73 68
4 68 73 74 69
4 70 75 76 71
4 71 76 77 72
4 72 77 78 73
4 73 78 79 74
4 75 80 81 76
4 76 81 82 77
4 77 82 83 78
4 78 83 84 79

CELL_TYPES 64
9
9
9
9
9
9
9
9
9
9
9
9
9
9
9
9
9
9
9
9
9
9
9
9
9
9
9
9
9
9
9
9
9
9
9
9
9
9
9
9
9
9
9
9
9
9
9
9
9
9
9
9
9
9
9
9
9
9
9
9
9
9
9
9

POINT_DATA 85
VECTORS Displacement float
  0.000000e+00   0.000000e+00   0.000000e+00
  0.000000e+00   0.000000e+00   0.000000e+00
  0.000000e+00   0.000000e+00   0.000000e+00
  0.000000e+00   0.000000e+00   0.000000e+00
  0.000000e+00   0.000000e+00   0.000000e+00
 -7.000510e-05   3.299680e-04  -9.796100e-05
 -2.695100e-05   3.409760e-04  -1.096980e-04
  1.154290e-15   3.629270e-04  -1.126720e-04
  2.695100e-05   3.409760e-04  -1.096980e-04
  7.000510e-05   3.299680e-04  -9.796100e-05
 -7.970250e-05   6.865040e-04  -4.149390e-04
 -4.045400e-05   6.813470e-04  -4.303240e-04
  3.179820e-15   6.749610e-04  -4.357720e-04
  4.045400e-05   6.813470e-04  -4.303240e-04
  7.970250e-05   6.865040e-04  -4.149390e-04
 -7.318920e-05   9.965640e-04  -9.413820e-04
 -3.674810e-05   9.979770e-04  -9.548200e-04
  5.217100e-15   9.980280e-04  -9.590730e-04
  3.674810e-05   9.979770e-04  -9.548200e-04
  7.318920e-05   9.965640e-04  -9.413820e-04
 -6.674110e-05   1.291660e-03  -1.657030e-03
 -3.304810e-05   1.290720e-03  -1.669730e-03
  7.178420e-15   1.288800e-03  -1.674140e-03
  3.304810e-05   1.290720e-03  -1.669730e-03
  6.674110e-05   1.291660e-03  -1.657030e-03
 -6.270540e-05   1.560720e-03  -2.548880e-03
 -3.164030e-05   1.560300e-03  -2.560510e-03
  9.132050e-15   1.558750e-03  -2.564240e-03
  3.164030e-05   1.560300e-03  -2.560510e-03
  6.270540e-05   1.560720e-03  -2.548880e-03
 -5.552780e-05   1.806710e-03  -3.601780e-03
 -2.753770e-05   1.806430e-03  -3.612270e-03
  1.090430e-14   1.804980e-03  -3.615890e-03
  2.753770e-05   1.806430e-03  -3.612270e-03
  5.552780e-05   1.806710e-03  -3.601780e-03
 -5.119680e-05   2.029630e-03  -4.801120e-03
 -2.576830e-05   2.029030e-03  -4.810680e-03
  1.280380e-14   2.027360e-03  -4.813750e-03
  2.576830e-05   2.029030e-03  -4.810680e-03
  5.119680e-05   2.029630e-03  -4.801120e-03
 -4.456850e-05   2.228580e-03  -6.132390e-03
 -2.215970e-05   2.228300e-03  -6.140760e-03
  1.481510e-14   2.226850e-03  -6.143660e-03
  2.215970e-05   2.228300e-03  -6.140760e-03
  4.456850e-05   2.228580e-03  -6.132390e-03
 -3.968970e-05   2.404590e-03  -7.580740e-03
 -1.993430e-05   2.404040e-03  -7.588190e-03
  1.699020e-14   2.402400e-03  -7.590570e-03
  1.993430e-05   2.404040e-03  -7.588190e-03
  3.968970e-05   2.404590e-03  -7.580740e-03
 -3.352850e-05   2.556740e-03  -9.131750e-03
 -1.670200e-05   2.556420e-03  -9.138000e-03
  1.878550e-14   2.554930e-03  -9.140190e-03
  1.670200e-05   2.556420e-03  -9.138000e-03
  3.352850e-05   2.556740e-03  -9.131750e-03
 -2.827280e-05   2.685800e-03  -1.077050e-02
 -1.417750e-05   2.685290e-03  -1.077590e-02
  2.005620e-14   2.683690e-03  -1.077750e-02
  1.417750e-05   2.685290e-03  -1.077590e-02
  2.827280e-05   2.685800e-03  -1.077050e-02
 -2.241070e-05   2.791150e-03  -1.248270e-02
 -1.118090e-05   2.790790e-03  -1.248680e-02
  2.096790e-14   2.789270e-03  -1.248830e-02
  1.118090e-05   2.790790e-03  -1.248680e-02
  2.241070e-05   2.791150e-03  -1.248270e-02
 -1.692040e-05   2.873270e-03  -1.425330e-02
 -8.473410e-06   2.872800e-03  -1.425650e-02
  2.203930e-14   2.871230e-03  -1.425750e-02
  8.473410e-06   2.872800e-03  -1.425650e-02
  1.692040e-05   2.873270e-03  -1.425330e-02
 -1.125300e-05   2.931820e-03  -1.606800e-02
 -5.616580e-06   2.931410e-03  -1.607000e-02
  2.304480e-14   2.929850e-03  -1.607080e-02
  5.616580e-06   2.931410e-03  -1.607000e-02
  1.125300e-05   2.931820e-03  -1.606800e-02
 -5.759740e-06   2.966920e-03  -1.791170e-02
 -2.986970e-06   2.966540e-03  -1.791290e-02
  2.375580e-14   2.965220e-03  -1.791320e-02
  2.986970e-06   2.966540e-03  -1.791290e-02
  5.759740e-06   2.966920e-03  -1.791170e-02
 -1.887720e-06   2.978810e-03  -1.977030e-02
 -1.108240e-06   2.978590e-03  -1.977050e-02
  2.417870e-14   2.977640e-03  -1.977080e-02
  1.108240e-06   2.978590e-03  -1.977050e-02
  1.887720e-06   2.978810e-03  -1.977030e-02

CELL_DATA 64
SCALARS Mx float 1
LOOKUP_TABLE default
  9.357570e+03
  1.001740e+04
  1.001740e+04
  9.357570e+03
  9.306660e+03
  8.818340e+03
  8.818340e+03
  9.306660e+03
  8.350520e+03
  8.524480e+03
  8.524480e+03
  8.350520e+03
  7.842290e+03
  7.782710e+03
  7.782710e+03
  7.842290e+03
  7.180640e+03
  7.194360e+03
  7.194360e+03
  7.180640e+03
  6.561420e+03
  6.563580e+03
  6.563580e+03
  6.561420e+03
  5.940790e+03
  5.934210e+03
  5.934210e+03
  5.940790e+03
  5.309040e+03
  5.315960e+03
  5.315960e+03
  5.309040e+03
  4.690490e+03
  4.684510e+03
  4.684510e+03
  4.690490e+03
  4.060070e+03
  4.064930e+03
  4.064930e+03
  4.060070e+03
  3.439430e+03
  3.435570e+03
  3.435570e+03
  3.439430e+03
  2.811000e+03
  2.814000e+03
  2.814000e+03
  2.811000e+03
  2.188560e+03
  2.186440e+03
  2.186440e+03
  2.188560e+03
  1.562020e+03
  1.562980e+03
  1.562980e+03
  1.562020e+03
  9.365580e+02
  9.384420e+02
  9.384420e+02
  9.365580e+02
  3.115730e+02
  3.134270e+02
  3.134270e+02
  3.115730e+02
SCALARS My float 1
LOOKUP_TABLE default
  1.372130e+03
  2.106860e+03
  2.106860e+03
  1.372130e+03
  4.857970e+01
  3.986680e+02
  3.986680e+02
  4.857970e+01
 -1.782900e+01
 -1.606000e+01
 -1.606000e+01
 -1.782900e+01
  1.488110e+01
  8.273850e+00
  8.273850e+00
  1.488110e+01
 -4.411570e+00
  2.027850e+00
  2.027850e+00
 -4.411570e+00
 -8.037210e-02
 -3.526550e+00
 -3.526550e+00
 -8.037210e-02
  1.616460e+00
  3.395910e+00
  3.395910e+00
  1.616460e+00
 -1.865400e+00
 -2.812200e+00
 -2.812200e+00
 -1.865400e+00
  1.672180e+00
  2.218930e+00
  2.218930e+00
  1.672180e+00
 -1.377850e+00
 -1.729470e+00
 -1.729470e+00
 -1.377850e+00
  1.100380e+00
  1.357180e+00
  1.357180e+00
  1.100380e+00
 -8.678880e-01
 -1.080330e+00
 -1.080330e+00
 -8.678880e-01
  6.781390e-01
  7.871540e-01
  7.871540e-01
  6.781390e-01
 -8.398490e-01
 -7.737100e-01
 -7.737100e-01
 -8.398490e-01
  6.596400e-01
 -5.252300e+00
 -5.252300e+00
  6.596400e-01
 -2.493690e+01
 -4.247860e+01
 -4.247860e+01
 -2.493690e+01
SCALARS Mxy float 1
LOOKUP_TABLE default
  6.383410e+02
  4.196220e+02
 -4.196220e+02
 -6.383410e+02
  1.939970e+02
  2.687880e+02
 -2.687880e+02
 -1.939970e+02
 -1.003940e+02
 -1.002240e+02
  1.002240e+02
  1.003940e+02
 -4.594650e+01
 -4.289410e+01
  4.289410e+01
  4.594650e+01
 -4.527770e+01
 -5.171710e+01
  5.171710e+01
  4.527770e+01
 -6.679440e+01
 -5.954110e+01
  5.954110e+01
  6.679440e+01
 -4.256230e+01
 -4.902800e+01
  4.902800e+01
  4.256230e+01
 -6.367770e+01
 -5.848550e+01
  5.848550e+01
  6.367770e+01
 -4.703360e+01
 -5.096850e+01
  5.096850e+01
  4.703360e+01
 -5.945210e+01
 -5.659340e+01
  5.659340e+01
  5.945210e+01
 -5.058150e+01
 -5.256630e+01
  5.256630e+01
  5.058150e+01
 -5.661250e+01
 -5.532570e+01
  5.532570e+01
  5.661250e+01
 -5.274320e+01
 -5.345580e+01
  5.345580e+01
  5.274320e+01
 -5.499390e+01
 -5.482210e+01
  5.482210e+01
  5.499390e+01
 -5.180100e+01
 -5.038080e+01
  5.038080e+01
  5.180100e+01
 -3.721910e+01
 -3.858720e+01
  3.858720e+01
  3.721910e+01
SCALARS Qx float 1
LOOKUP_TABLE default
  1.031250e+04
 -1.231250e+04
 -1.231250e+04
  1.031250e+04
 -2.463030e+03
  4.630260e+02
  4.630260e+02
 -2.463030e+03
 -9.803720e+02
 -1.019630e+03
 -1.019630e+03
 -9.803720e+02
 -1.372250e+03
 -6.277500e+02
 -6.277500e+02
 -1.372250e+03
 -1.617990e+03
 -3.820110e+02
 -3.820110e+02
 -1.617990e+03
 -1.240740e+03
 -7.592550e+02
 -7.592550e+02
 -1.240740e+03
 -1.597700e+03
 -4.023020e+02
 -4.023020e+02
 -1.597700e+03
 -1.305670e+03
 -6.943320e+02
 -6.943320e+02
 -1.305670e+03
 -1.529420e+03
 -4.705830e+02
 -4.705830e+02
 -1.529420e+03
 -1.364900e+03
 -6.350990e+02
 -6.350990e+02
 -1.364900e+03
 -1.481310e+03
 -5.186940e+02
 -5.186940e+02
 -1.481310e+03
 -1.403050e+03
 -5.969450e+02
 -5.969450e+02
 -1.403050e+03
 -1.451570e+03
 -5.484340e+02
 -5.484340e+02
 -1.451570e+03
 -1.423170e+03
 -5.768250e+02
 -5.768250e+02
 -1.423170e+03
 -1.431400e+03
 -5.685960e+02
 -5.685960e+02
 -1.431400e+03
 -1.286960e+03
 -7.130370e+02
 -7.130370e+02
 -1.286960e+03
SCALARS Qy float 1
LOOKUP_TABLE default
  4.901020e+03
  5.061020e+03
 -5.061020e+03
 -4.901020e+03
  2.091870e+02
  4.918750e+01
 -4.918750e+01
 -2.091870e+02
 -8.022490e+02
 -6.422490e+02
  6.422490e+02
  8.022490e+02
  9.590010e+02
  7.990010e+02
 -7.990010e+02
 -9.590010e+02
 -8.607050e+02
 -7.007050e+02
  7.007050e+02
  8.607050e+02
  7.098070e+02
  5.498070e+02
 -5.498070e+02
 -7.098070e+02
 -5.670260e+02
 -4.070260e+02
  4.070260e+02
  5.670260e+02
  4.502140e+02
  2.902140e+02
 -2.902140e+02
 -4.502140e+02
 -3.607140e+02
 -2.007140e+02
  2.007140e+02
  3.607140e+02
  2.949070e+02
  1.349070e+02
 -1.349070e+02
 -2.949070e+02
 -2.483450e+02
 -8.834490e+01
  8.834490e+01
  2.483450e+02
  2.170440e+02
  5.704440e+01
 -5.704440e+01
 -2.170440e+02
 -1.976400e+02
 -3.763980e+01
  3.763980e+01
  1.976400e+02
  1.862830e+02
  2.628320e+01
 -2.628320e+01
 -1.862830e+02
 -1.829910e+02
 -2.299130e+01
  2.299130e+01
  1.829910e+02
  1.252150e+02
 -3.478530e+01
  3.478530e+01
 -1.252150e+02
