# vtk DataFile Version 2.0
Q4 Cantilever Convergence Test 32x16 Mesh
ASCII
DATASET UNSTRUCTURED_GRID
POINTS 561 float
  0.000000e+00   0.000000e+00   0.000000e+00
  3.125000e-01   0.000000e+00   0.000000e+00
  6.250000e-01   0.000000e+00   0.000000e+00
  9.375000e-01   0.000000e+00   0.000000e+00
  1.250000e+00   0.000000e+00   0.000000e+00
  1.562500e+00   0.000000e+00   0.000000e+00
  1.875000e+00   0.000000e+00   0.000000e+00
  2.187500e+00   0.000000e+00   0.000000e+00
  2.500000e+00   0.000000e+00   0.000000e+00
  2.812500e+00   0.000000e+00   0.000000e+00
  3.125000e+00   0.000000e+00   0.000000e+00
  3.437500e+00   0.000000e+00   0.000000e+00
  3.750000e+00   0.000000e+00   0.000000e+00
  4.062500e+00   0.000000e+00   0.000000e+00
  4.375000e+00   0.000000e+00   0.000000e+00
  4.687500e+00   0.000000e+00   0.000000e+00
  5.000000e+00   0.000000e+00   0.000000e+00
  5.312500e+00   0.000000e+00   0.000000e+00
  5.625000e+00   0.000000e+00   0.000000e+00
  5.937500e+00   0.000000e+00   0.000000e+00
  6.250000e+00   0.000000e+00   0.000000e+00
  6.562500e+00   0.000000e+00   0.000000e+00
  6.875000e+00   0.000000e+00   0.000000e+00
  7.187500e+00   0.000000e+00   0.000000e+00
  7.500000e+00   0.000000e+00   0.000000e+00
  7.812500e+00   0.000000e+00   0.000000e+00
  8.125000e+00   0.000000e+00   0.000000e+00
  8.437500e+00   0.000000e+00   0.000000e+00
  8.750000e+00   0.000000e+00   0.000000e+00
  9.062500e+00   0.000000e+00   0.000000e+00
  9.375000e+00   0.000000e+00   0.000000e+00
  9.687500e+00   0.000000e+00   0.000000e+00
  1.000000e+01   0.000000e+00   0.000000e+00
  0.000000e+00   6.250000e-02   0.000000e+00
  3.125000e-01   6.250000e-02   0.000000e+00
  6.250000e-01   6.250000e-02   0.000000e+00
  9.375000e-01   6.250000e-02   0.000000e+00
  1.250000e+00   6.250000e-02   0.000000e+00
  1.562500e+00   6.250000e-02   0.000000e+00
  1.875000e+00   6.250000e-02   0.000000e+00
  2.187500e+00   6.250000e-02   0.000000e+00
  2.500000e+00   6.250000e-02   0.000000e+00
  2.812500e+00   6.250000e-02   0.000000e+00
  3.125000e+00   6.250000e-02   0.000000e+00
  3.437500e+00   6.250000e-02   0.000000e+00
  3.750000e+00   6.250000e-02   0.000000e+00
  4.062500e+00   6.250000e-02   0.000000e+00
  4.375000e+00   6.250000e-02   0.000000e+00
  4.687500e+00   6.250000e-02   0.000000e+00
  5.000000e+00   6.250000e-02   0.000000e+00
  5.312500e+00   6.250000e-02   0.000000e+00
  5.625000e+00   6.250000e-02   0.000000e+00
  5.937500e+00   6.250000e-02   0.000000e+00
  6.250000e+00   6.250000e-02   0.000000e+00
  6.562500e+00   6.250000e-02   0.000000e+00
  6.875000e+00   6.250000e-02   0.000000e+00
  7.187500e+00   6.250000e-02   0.000000e+00
  7.500000e+00   6.250000e-02   0.000000e+00
  7.812500e+00   6.250000e-02   0.000000e+00
  8.125000e+00   6.250000e-02   0.000000e+00
  8.437500e+00   6.250000e-02   0.000000e+00
  8.750000e+00   6.250000e-02   0.000000e+00
  9.062500e+00   6.250000e-02   0.000000e+00
  9.375000e+00   6.250000e-02   0.000000e+00
  9.687500e+00   6.250000e-02   0.000000e+00
  1.000000e+01   6.250000e-02   0.000000e+00
  0.000000e+00   1.250000e-01   0.000000e+00
  3.125000e-01   1.250000e-01   0.000000e+00
  6.250000e-01   1.250000e-01   0.000000e+00
  9.375000e-01   1.250000e-01   0.000000e+00
  1.250000e+00   1.250000e-01   0.000000e+00
  1.562500e+00   1.250000e-01   0.000000e+00
  1.875000e+00   1.250000e-01   0.000000e+00
  2.187500e+00   1.250000e-01   0.000000e+00
  2.500000e+00   1.250000e-01   0.000000e+00
  2.812500e+00   1.250000e-01   0.000000e+00
  3.125000e+00   1.250000e-01   0.000000e+00
  3.437500e+00   1.250000e-01   0.000000e+00
  3.750000e+00   1.250000e-01   0.000000e+00
  4.062500e+00   1.250000e-01   0.000000e+00
  4.375000e+00   1.250000e-01   0.000000e+00
  4.687500e+00   1.250000e-01   0.000000e+00
  5.000000e+00   1.250000e-01   0.000000e+00
  5.312500e+00   1.250000e-01   0.000000e+00
  5.625000e+00   1.250000e-01   0.000000e+00
  5.937500e+00   1.250000e-01   0.000000e+00
  6.250000e+00   1.250000e-01   0.000000e+00
  6.562500e+00   1.250000e-01   0.000000e+00
  6.875000e+00   1.250000e-01   0.000000e+00
  7.187500e+00   1.250000e-01   0.000000e+00
  7.500000e+00   1.250000e-01   0.000000e+00
  7.812500e+00   1.250000e-01   0.000000e+00
  8.125000e+00   1.250000e-01   0.000000e+00
  8.437500e+00   1.250000e-01   0.000000e+00
  8.750000e+00   1.250000e-01   0.000000e+00
  9.062500e+00   1.250000e-01   0.000000e+00
  9.375000e+00   1.250000e-01   0.000000e+00
  9.687500e+00   1.250000e-01   0.000000e+00
  1.000000e+01   1.250000e-01   0.000000e+00
  0.000000e+00   1.875000e-01   0.000000e+00
  3.125000e-01   1.875000e-01   0.000000e+00
  6.250000e-01   1.875000e-01   0.000000e+00
  9.375000e-01   1.875000e-01   0.000000e+00
  1.250000e+00   1.875000e-01   0.000000e+00
  1.562500e+00   1.875000e-01   0.000000e+00
  1.875000e+00   1.875000e-01   0.000000e+00
  2.187500e+00   1.875000e-01   0.000000e+00
  2.500000e+00   1.875000e-01   0.000000e+00
  2.812500e+00   1.875000e-01   0.000000e+00
  3.125000e+00   1.875000e-01   0.000000e+00
  3.437500e+00   1.875000e-01   0.000000e+00
  3.750000e+00   1.875000e-01   0.000000e+00
  4.062500e+00   1.875000e-01   0.000000e+00
  4.375000e+00   1.875000e-01   0.000000e+00
  4.687500e+00   1.875000e-01   0.000000e+00
  5.000000e+00   1.875000e-01   0.000000e+00
  5.312500e+00   1.875000e-01   0.000000e+00
  5.625000e+00   1.875000e-01   0.000000e+00
  5.937500e+00   1.875000e-01   0.000000e+00
  6.250000e+00   1.875000e-01   0.000000e+00
  6.562500e+00   1.875000e-01   0.000000e+00
  6.875000e+00   1.875000e-01   0.000000e+00
  7.187500e+00   1.875000e-01   0.000000e+00
  7.500000e+00   1.875000e-01   0.000000e+00
  7.812500e+00   1.875000e-01   0.000000e+00
  8.125000e+00   1.875000e-01   0.000000e+00
  8.437500e+00   1.875000e-01   0.000000e+00
  8.750000e+00   1.875000e-01   0.000000e+00
  9.062500e+00   1.875000e-01   0.000000e+00
  9.375000e+00   1.875000e-01   0.000000e+00
  9.687500e+00   1.875000e-01   0.000000e+00
  1.000000e+01   1.875000e-01   0.000000e+00
  0.000000e+00   2.500000e-01   0.000000e+00
  3.125000e-01   2.500000e-01   0.000000e+00
  6.250000e-01   2.500000e-01   0.000000e+00
  9.375000e-01   2.500000e-01   0.000000e+00
  1.250000e+00   2.500000e-01   0.000000e+00
  1.562500e+00   2.500000e-01   0.000000e+00
  1.875000e+00   2.500000e-01   0.000000e+00
  2.187500e+00   2.500000e-01   0.000000e+00
  2.500000e+00   2.500000e-01   0.000000e+00
  2.812500e+00   2.500000e-01   0.000000e+00
  3.125000e+00   2.500000e-01   0.000000e+00
  3.437500e+00   2.500000e-01   0.000000e+00
  3.750000e+00   2.500000e-01   0.000000e+00
  4.062500e+00   2.500000e-01   0.000000e+00
  4.375000e+00   2.500000e-01   0.000000e+00
  4.687500e+00   2.500000e-01   0.000000e+00
  5.000000e+00   2.500000e-01   0.000000e+00
  5.312500e+00   2.500000e-01   0.000000e+00
  5.625000e+00   2.500000e-01   0.000000e+00
  5.937500e+00   2.500000e-01   0.000000e+00
  6.250000e+00   2.500000e-01   0.000000e+00
  6.562500e+00   2.500000e-01   0.000000e+00
  6.875000e+00   2.500000e-01   0.000000e+00
  7.187500e+00   2.500000e-01   0.000000e+00
  7.500000e+00   2.500000e-01   0.000000e+00
  7.812500e+00   2.500000e-01   0.000000e+00
  8.125000e+00   2.500000e-01   0.000000e+00
  8.437500e+00   2.500000e-01   0.000000e+00
  8.750000e+00   2.500000e-01   0.000000e+00
  9.062500e+00   2.500000e-01   0.000000e+00
  9.375000e+00   2.500000e-01   0.000000e+00
  9.687500e+00   2.500000e-01   0.000000e+00
  1.000000e+01   2.500000e-01   0.000000e+00
  0.000000e+00   3.125000e-01   0.000000e+00
  3.125000e-01   3.125000e-01   0.000000e+00
  6.250000e-01   3.125000e-01   0.000000e+00
  9.375000e-01   3.125000e-01   0.000000e+00
  1.250000e+00   3.125000e-01   0.000000e+00
  1.562500e+00   3.125000e-01   0.000000e+00
  1.875000e+00   3.125000e-01   0.000000e+00
  2.187500e+00   3.125000e-01   0.000000e+00
  2.500000e+00   3.125000e-01   0.000000e+00
  2.812500e+00   3.125000e-01   0.000000e+00
  3.125000e+00   3.125000e-01   0.000000e+00
  3.437500e+00   3.125000e-01   0.000000e+00
  3.750000e+00   3.125000e-01   0.000000e+00
  4.062500e+00   3.125000e-01   0.000000e+00
  4.375000e+00   3.125000e-01   0.000000e+00
  4.687500e+00   3.125000e-01   0.000000e+00
  5.000000e+00   3.125000e-01   0.000000e+00
  5.312500e+00   3.125000e-01   0.000000e+00
  5.625000e+00   3.125000e-01   0.000000e+00
  5.937500e+00   3.125000e-01   0.000000e+00
  6.250000e+00   3.125000e-01   0.000000e+00
  6.562500e+00   3.125000e-01   0.000000e+00
  6.875000e+00   3.125000e-01   0.000000e+00
  7.187500e+00   3.125000e-01   0.000000e+00
  7.500000e+00   3.125000e-01   0.000000e+00
  7.812500e+00   3.125000e-01   0.000000e+00
  8.125000e+00   3.125000e-01   0.000000e+00
  8.437500e+00   3.125000e-01   0.000000e+00
  8.750000e+00   3.125000e-01   0.000000e+00
  9.062500e+00   3.125000e-01   0.000000e+00
  9.375000e+00   3.125000e-01   0.000000e+00
  9.687500e+00   3.125000e-01   0.000000e+00
  1.000000e+01   3.125000e-01   0.000000e+00
  0.000000e+00   3.750000e-01   0.000000e+00
  3.125000e-01   3.750000e-01   0.000000e+00
  6.250000e-01   3.750000e-01   0.000000e+00
  9.375000e-01   3.750000e-01   0.000000e+00
  1.250000e+00   3.750000e-01   0.000000e+00
  1.562500e+00   3.750000e-01   0.000000e+00
  1.875000e+00   3.750000e-01   0.000000e+00
  2.187500e+00   3.750000e-01   0.000000e+00
  2.500000e+00   3.750000e-01   0.000000e+00
  2.812500e+00   3.750000e-01   0.000000e+00
  3.125000e+00   3.750000e-01   0.000000e+00
  3.437500e+00   3.750000e-01   0.000000e+00
  3.750000e+00   3.750000e-01   0.000000e+00
  4.062500e+00   3.750000e-01   0.000000e+00
  4.375000e+00   3.750000e-01   0.000000e+00
  4.687500e+00   3.750000e-01   0.000000e+00
  5.000000e+00   3.750000e-01   0.000000e+00
  5.312500e+00   3.750000e-01   0.000000e+00
  5.625000e+00   3.750000e-01   0.000000e+00
  5.937500e+00   3.750000e-01   0.000000e+00
  6.250000e+00   3.750000e-01   0.000000e+00
  6.562500e+00   3.750000e-01   0.000000e+00
  6.875000e+00   3.750000e-01   0.000000e+00
  7.187500e+00   3.750000e-01   0.000000e+00
  7.500000e+00   3.750000e-01   0.000000e+00
  7.812500e+00   3.750000e-01   0.000000e+00
  8.125000e+00   3.750000e-01   0.000000e+00
  8.437500e+00   3.750000e-01   0.000000e+00
  8.750000e+00   3.750000e-01   0.000000e+00
  9.062500e+00   3.750000e-01   0.000000e+00
  9.375000e+00   3.750000e-01   0.000000e+00
  9.687500e+00   3.750000e-01   0.000000e+00
  1.000000e+01   3.750000e-01   0.000000e+00
  0.000000e+00   4.375000e-01   0.000000e+00
  3.125000e-01   4.375000e-01   0.000000e+00
  6.250000e-01   4.375000e-01   0.000000e+00
  9.375000e-01   4.375000e-01   0.000000e+00
  1.250000e+00   4.375000e-01   0.000000e+00
  1.562500e+00   4.375000e-01   0.000000e+00
  1.875000e+00   4.375000e-01   0.000000e+00
  2.187500e+00   4.375000e-01   0.000000e+00
  2.500000e+00   4.375000e-01   0.000000e+00
  2.812500e+00   4.375000e-01   0.000000e+00
  3.125000e+00   4.375000e-01   0.000000e+00
  3.437500e+00   4.375000e-01   0.000000e+00
  3.750000e+00   4.375000e-01   0.000000e+00
  4.062500e+00   4.375000e-01   0.000000e+00
  4.375000e+00   4.375000e-01   0.000000e+00
  4.687500e+00   4.375000e-01   0.000000e+00
  5.000000e+00   4.375000e-01   0.000000e+00
  5.312500e+00   4.375000e-01   0.000000e+00
  5.625000e+00   4.375000e-01   0.000000e+00
  5.937500e+00   4.375000e-01   0.000000e+00
  6.250000e+00   4.375000e-01   0.000000e+00
  6.562500e+00   4.375000e-01   0.000000e+00
  6.875000e+00   4.375000e-01   0.000000e+00
  7.187500e+00   4.375000e-01   0.000000e+00
  7.500000e+00   4.375000e-01   0.000000e+00
  7.812500e+00   4.375000e-01   0.000000e+00
  8.125000e+00   4.375000e-01   0.000000e+00
  8.437500e+00   4.375000e-01   0.000000e+00
  8.750000e+00   4.375000e-01   0.000000e+00
  9.062500e+00   4.375000e-01   0.000000e+00
  9.375000e+00   4.375000e-01   0.000000e+00
  9.687500e+00   4.375000e-01   0.000000e+00
  1.000000e+01   4.375000e-01   0.000000e+00
  0.000000e+00   5.000000e-01   0.000000e+00
  3.125000e-01   5.000000e-01   0.000000e+00
  6.250000e-01   5.000000e-01   0.000000e+00
  9.375000e-01   5.000000e-01   0.000000e+00
  1.250000e+00   5.000000e-01   0.000000e+00
  1.562500e+00   5.000000e-01   0.000000e+00
  1.875000e+00   5.000000e-01   0.000000e+00
  2.187500e+00   5.000000e-01   0.000000e+00
  2.500000e+00   5.000000e-01   0.000000e+00
  2.812500e+00   5.000000e-01   0.000000e+00
  3.125000e+00   5.000000e-01   0.000000e+00
  3.437500e+00   5.000000e-01   0.000000e+00
  3.750000e+00   5.000000e-01   0.000000e+00
  4.062500e+00   5.000000e-01   0.000000e+00
  4.375000e+00   5.000000e-01   0.000000e+00
  4.687500e+00   5.000000e-01   0.000000e+00
  5.000000e+00   5.000000e-01   0.000000e+00
  5.312500e+00   5.000000e-01   0.000000e+00
  5.625000e+00   5.000000e-01   0.000000e+00
  5.937500e+00   5.000000e-01   0.000000e+00
  6.250000e+00   5.000000e-01   0.000000e+00
  6.562500e+00   5.000000e-01   0.000000e+00
  6.875000e+00   5.000000e-01   0.000000e+00
  7.187500e+00   5.000000e-01   0.000000e+00
  7.500000e+00   5.000000e-01   0.000000e+00
  7.812500e+00   5.000000e-01   0.000000e+00
  8.125000e+00   5.000000e-01   0.000000e+00
  8.437500e+00   5.000000e-01   0.000000e+00
  8.750000e+00   5.000000e-01   0.000000e+00
  9.062500e+00   5.000000e-01   0.000000e+00
  9.375000e+00   5.000000e-01   0.000000e+00
  9.687500e+00   5.000000e-01   0.000000e+00
  1.000000e+01   5.000000e-01   0.000000e+00
  0.000000e+00   5.625000e-01   0.000000e+00
  3.125000e-01   5.625000e-01   0.000000e+00
  6.250000e-01   5.625000e-01   0.000000e+00
  9.375000e-01   5.625000e-01   0.000000e+00
  1.250000e+00   5.625000e-01   0.000000e+00
  1.562500e+00   5.625000e-01   0.000000e+00
  1.875000e+00   5.625000e-01   0.000000e+00
  2.187500e+00   5.625000e-01   0.000000e+00
  2.500000e+00   5.625000e-01   0.000000e+00
  2.812500e+00   5.625000e-01   0.000000e+00
  3.125000e+00   5.625000e-01   0.000000e+00
  3.437500e+00   5.625000e-01   0.000000e+00
  3.750000e+00   5.625000e-01   0.000000e+00
  4.062500e+00   5.625000e-01   0.000000e+00
  4.375000e+00   5.625000e-01   0.000000e+00
  4.687500e+00   5.625000e-01   0.000000e+00
  5.000000e+00   5.625000e-01   0.000000e+00
  5.312500e+00   5.625000e-01   0.000000e+00
  5.625000e+00   5.625000e-01   0.000000e+00
  5.937500e+00   5.625000e-01   0.000000e+00
  6.250000e+00   5.625000e-01   0.000000e+00
  6.562500e+00   5.625000e-01   0.000000e+00
  6.875000e+00   5.625000e-01   0.000000e+00
  7.187500e+00   5.625000e-01   0.000000e+00
  7.500000e+00   5.625000e-01   0.000000e+00
  7.812500e+00   5.625000e-01   0.000000e+00
  8.125000e+00   5.625000e-01   0.000000e+00
  8.437500e+00   5.625000e-01   0.000000e+00
  8.750000e+00   5.625000e-01   0.000000e+00
  9.062500e+00   5.625000e-01   0.000000e+00
  9.375000e+00   5.625000e-01   0.000000e+00
  9.687500e+00   5.625000e-01   0.000000e+00
  1.000000e+01   5.625000e-01   0.000000e+00
  0.000000e+00   6.250000e-01   0.000000e+00
  3.125000e-01   6.250000e-01   0.000000e+00
  6.250000e-01   6.250000e-01   0.000000e+00
  9.375000e-01   6.250000e-01   0.000000e+00
  1.250000e+00   6.250000e-01   0.000000e+00
  1.562500e+00   6.250000e-01   0.000000e+00
  1.875000e+00   6.250000e-01   0.000000e+00
  2.187500e+00   6.250000e-01   0.000000e+00
  2.500000e+00   6.250000e-01   0.000000e+00
  2.812500e+00   6.250000e-01   0.000000e+00
  3.125000e+00   6.250000e-01   0.000000e+00
  3.437500e+00   6.250000e-01   0.000000e+00
  3.750000e+00   6.250000e-01   0.000000e+00
  4.062500e+00   6.250000e-01   0.000000e+00
  4.375000e+00   6.250000e-01   0.000000e+00
  4.687500e+00   6.250000e-01   0.000000e+00
  5.000000e+00   6.250000e-01   0.000000e+00
  5.312500e+00   6.250000e-01   0.000000e+00
  5.625000e+00   6.250000e-01   0.000000e+00
  5.937500e+00   6.250000e-01   0.000000e+00
  6.250000e+00   6.250000e-01   0.000000e+00
  6.562500e+00   6.250000e-01   0.000000e+00
  6.875000e+00   6.250000e-01   0.000000e+00
  7.187500e+00   6.250000e-01   0.000000e+00
  7.500000e+00   6.250000e-01   0.000000e+00
  7.812500e+00   6.250000e-01   0.000000e+00
  8.125000e+00   6.250000e-01   0.000000e+00
  8.437500e+00   6.250000e-01   0.000000e+00
  8.750000e+00   6.250000e-01   0.000000e+00
  9.062500e+00   6.250000e-01   0.000000e+00
  9.375000e+00   6.250000e-01   0.000000e+00
  9.687500e+00   6.250000e-01   0.000000e+00
  1.000000e+01   6.250000e-01   0.000000e+00
  0.000000e+00   6.875000e-01   0.000000e+00
  3.125000e-01   6.875000e-01   0.000000e+00
  6.250000e-01   6.875000e-01   0.000000e+00
  9.375000e-01   6.875000e-01   0.000000e+00
  1.250000e+00   6.875000e-01   0.000000e+00
  1.562500e+00   6.875000e-01   0.000000e+00
  1.875000e+00   6.875000e-01   0.000000e+00
  2.187500e+00   6.875000e-01   0.000000e+00
  2.500000e+00   6.875000e-01   0.000000e+00
  2.812500e+00   6.875000e-01   0.000000e+00
  3.125000e+00   6.875000e-01   0.000000e+00
  3.437500e+00   6.875000e-01   0.000000e+00
  3.750000e+00   6.875000e-01   0.000000e+00
  4.062500e+00   6.875000e-01   0.000000e+00
  4.375000e+00   6.875000e-01   0.000000e+00
  4.687500e+00   6.875000e-01   0.000000e+00
  5.000000e+00   6.875000e-01   0.000000e+00
  5.312500e+00   6.875000e-01   0.000000e+00
  5.625000e+00   6.875000e-01   0.000000e+00
  5.937500e+00   6.875000e-01   0.000000e+00
  6.250000e+00   6.875000e-01   0.000000e+00
  6.562500e+00   6.875000e-01   0.000000e+00
  6.875000e+00   6.875000e-01   0.000000e+00
  7.187500e+00   6.875000e-01   0.000000e+00
  7.500000e+00   6.875000e-01   0.000000e+00
  7.812500e+00   6.875000e-01   0.000000e+00
  8.125000e+00   6.875000e-01   0.000000e+00
  8.437500e+00   6.875000e-01   0.000000e+00
  8.750000e+00   6.875000e-01   0.000000e+00
  9.062500e+00   6.875000e-01   0.000000e+00
  9.375000e+00   6.875000e-01   0.000000e+00
  9.687500e+00   6.875000e-01   0.000000e+00
  1.000000e+01   6.875000e-01   0.000000e+00
  0.000000e+00   7.500000e-01   0.000000e+00
  3.125000e-01   7.500000e-01   0.000000e+00
  6.250000e-01   7.500000e-01   0.000000e+00
  9.375000e-01   7.500000e-01   0.000000e+00
  1.250000e+00   7.500000e-01   0.000000e+00
  1.562500e+00   7.500000e-01   0.000000e+00
  1.875000e+00   7.500000e-01   0.000000e+00
  2.187500e+00   7.500000e-01   0.000000e+00
  2.500000e+00   7.500000e-01   0.000000e+00
  2.812500e+00   7.500000e-01   0.000000e+00
  3.125000e+00   7.500000e-01   0.000000e+00
  3.437500e+00   7.500000e-01   0.000000e+00
  3.750000e+00   7.500000e-01   0.000000e+00
  4.062500e+00   7.500000e-01   0.000000e+00
  4.375000e+00   7.500000e-01   0.000000e+00
  4.687500e+00   7.500000e-01   0.000000e+00
  5.000000e+00   7.500000e-01   0.000000e+00
  5.312500e+00   7.500000e-01   0.000000e+00
  5.625000e+00   7.500000e-01   0.000000e+00
  5.937500e+00   7.500000e-01   0.000000e+00
  6.250000e+00   7.500000e-01   0.000000e+00
  6.562500e+00   7.500000e-01   0.000000e+00
  6.875000e+00   7.500000e-01   0.000000e+00
  7.187500e+00   7.500000e-01   0.000000e+00
  7.500000e+00   7.500000e-01   0.000000e+00
  7.812500e+00   7.500000e-01   0.000000e+00
  8.125000e+00   7.500000e-01   0.000000e+00
  8.437500e+00   7.500000e-01   0.000000e+00
  8.750000e+00   7.500000e-01   0.000000e+00
  9.062500e+00   7.500000e-01   0.000000e+00
  9.375000e+00   7.500000e-01   0.000000e+00
  9.687500e+00   7.500000e-01   0.000000e+00
  1.000000e+01   7.500000e-01   0.000000e+00
  0.000000e+00   8.125000e-01   0.000000e+00
  3.125000e-01   8.125000e-01   0.000000e+00
  6.250000e-01   8.125000e-01   0.000000e+00
  9.375000e-01   8.125000e-01   0.000000e+00
  1.250000e+00   8.125000e-01   0.000000e+00
  1.562500e+00   8.125000e-01   0.000000e+00
  1.875000e+00   8.125000e-01   0.000000e+00
  2.187500e+00   8.125000e-01   0.000000e+00
  2.500000e+00   8.125000e-01   0.000000e+00
  2.812500e+00   8.125000e-01   0.000000e+00
  3.125000e+00   8.125000e-01   0.000000e+00
  3.437500e+00   8.125000e-01   0.000000e+00
  3.750000e+00   8.125000e-01   0.000000e+00
  4.062500e+00   8.125000e-01   0.000000e+00
  4.375000e+00   8.125000e-01   0.000000e+00
  4.687500e+00   8.125000e-01   0.000000e+00
  5.000000e+00   8.125000e-01   0.000000e+00
  5.312500e+00   8.125000e-01   0.000000e+00
  5.625000e+00   8.125000e-01   0.000000e+00
  5.937500e+00   8.125000e-01   0.000000e+00
  6.250000e+00   8.125000e-01   0.000000e+00
  6.562500e+00   8.125000e-01   0.000000e+00
  6.875000e+00   8.125000e-01   0.000000e+00
  7.187500e+00   8.125000e-01   0.000000e+00
  7.500000e+00   8.125000e-01   0.000000e+00
  7.812500e+00   8.125000e-01   0.000000e+00
  8.125000e+00   8.125000e-01   0.000000e+00
  8.437500e+00   8.125000e-01   0.000000e+00
  8.750000e+00   8.125000e-01   0.000000e+00
  9.062500e+00   8.125000e-01   0.000000e+00
  9.375000e+00   8.125000e-01   0.000000e+00
  9.687500e+00   8.125000e-01   0.000000e+00
  1.000000e+01   8.125000e-01   0.000000e+00
  0.000000e+00   8.750000e-01   0.000000e+00
  3.125000e-01   8.750000e-01   0.000000e+00
  6.250000e-01   8.750000e-01   0.000000e+00
  9.375000e-01   8.750000e-01   0.000000e+00
  1.250000e+00   8.750000e-01   0.000000e+00
  1.562500e+00   8.750000e-01   0.000000e+00
  1.875000e+00   8.750000e-01   0.000000e+00
  2.187500e+00   8.750000e-01   0.000000e+00
  2.500000e+00   8.750000e-01   0.000000e+00
  2.812500e+00   8.750000e-01   0.000000e+00
  3.125000e+00   8.750000e-01   0.000000e+00
  3.437500e+00   8.750000e-01   0.000000e+00
  3.750000e+00   8.750000e-01   0.000000e+00
  4.062500e+00   8.750000e-01   0.000000e+00
  4.375000e+00   8.750000e-01   0.000000e+00
  4.687500e+00   8.750000e-01   0.000000e+00
  5.000000e+00   8.750000e-01   0.000000e+00
  5.312500e+00   8.750000e-01   0.000000e+00
  5.625000e+00   8.750000e-01   0.000000e+00
  5.937500e+00   8.750000e-01   0.000000e+00
  6.250000e+00   8.750000e-01   0.000000e+00
  6.562500e+00   8.750000e-01   0.000000e+00
  6.875000e+00   8.750000e-01   0.000000e+00
  7.187500e+00   8.750000e-01   0.000000e+00
  7.500000e+00   8.750000e-01   0.000000e+00
  7.812500e+00   8.750000e-01   0.000000e+00
  8.125000e+00   8.750000e-01   0.000000e+00
  8.437500e+00   8.750000e-01   0.000000e+00
  8.750000e+00   8.750000e-01   0.000000e+00
  9.062500e+00   8.750000e-01   0.000000e+00
  9.375000e+00   8.750000e-01   0.000000e+00
  9.687500e+00   8.750000e-01   0.000000e+00
  1.000000e+01   8.750000e-01   0.000000e+00
  0.000000e+00   9.375000e-01   0.000000e+00
  3.125000e-01   9.375000e-01   0.000000e+00
  6.250000e-01   9.375000e-01   0.000000e+00
  9.375000e-01   9.375000e-01   0.000000e+00
  1.250000e+00   9.375000e-01   0.000000e+00
  1.562500e+00   9.375000e-01   0.000000e+00
  1.875000e+00   9.375000e-01   0.000000e+00
  2.187500e+00   9.375000e-01   0.000000e+00
  2.500000e+00   9.375000e-01   0.000000e+00
  2.812500e+00   9.375000e-01   0.000000e+00
  3.125000e+00   9.375000e-01   0.000000e+00
  3.437500e+00   9.375000e-01   0.000000e+00
  3.750000e+00   9.375000e-01   0.000000e+00
  4.062500e+00   9.375000e-01   0.000000e+00
  4.375000e+00   9.375000e-01   0.000000e+00
  4.687500e+00   9.375000e-01   0.000000e+00
  5.000000e+00   9.375000e-01   0.000000e+00
  5.312500e+00   9.375000e-01   0.000000e+00
  5.625000e+00   9.375000e-01   0.000000e+00
  5.937500e+00   9.375000e-01   0.000000e+00
  6.250000e+00   9.375000e-01   0.000000e+00
  6.562500e+00   9.375000e-01   0.000000e+00
  6.875000e+00   9.375000e-01   0.000000e+00
  7.187500e+00   9.375000e-01   0.000000e+00
  7.500000e+00   9.375000e-01   0.000000e+00
  7.812500e+00   9.375000e-01   0.000000e+00
  8.125000e+00   9.375000e-01   0.000000e+00
  8.437500e+00   9.375000e-01   0.000000e+00
  8.750000e+00   9.375000e-01   0.000000e+00
  9.062500e+00   9.375000e-01   0.000000e+00
  9.375000e+00   9.375000e-01   0.000000e+00
  9.687500e+00   9.375000e-01   0.000000e+00
  1.000000e+01   9.375000e-01   0.000000e+00
  0.000000e+00   1.000000e+00   0.000000e+00
  3.125000e-01   1.000000e+00   0.000000e+00
  6.250000e-01   1.000000e+00   0.000000e+00
  9.375000e-01   1.000000e+00   0.000000e+00
  1.250000e+00   1.000000e+00   0.000000e+00
  1.562500e+00   1.000000e+00   0.000000e+00
  1.875000e+00   1.000000e+00   0.000000e+00
  2.187500e+00   1.000000e+00   0.000000e+00
  2.500000e+00   1.000000e+00   0.000000e+00
  2.812500e+00   1.000000e+00   0.000000e+00
  3.125000e+00   1.000000e+00   0.000000e+00
  3.437500e+00   1.000000e+00   0.000000e+00
  3.750000e+00   1.000000e+00   0.000000e+00
  4.062500e+00   1.000000e+00   0.000000e+00
  4.375000e+00   1.000000e+00   0.000000e+00
  4.687500e+00   1.000000e+00   0.000000e+00
  5.000000e+00   1.000000e+00   0.000000e+00
  5.312500e+00   1.000000e+00   0.000000e+00
  5.625000e+00   1.000000e+00   0.000000e+00
  5.937500e+00   1.000000e+00   0.000000e+00
  6.250000e+00   1.000000e+00   0.000000e+00
  6.562500e+00   1.000000e+00   0.000000e+00
  6.875000e+00   1.000000e+00   0.000000e+00
  7.187500e+00   1.000000e+00   0.000000e+00
  7.500000e+00   1.000000e+00   0.000000e+00
  7.812500e+00   1.000000e+00   0.000000e+00
  8.125000e+00   1.000000e+00   0.000000e+00
  8.437500e+00   1.000000e+00   0.000000e+00
  8.750000e+00   1.000000e+00   0.000000e+00
  9.062500e+00   1.000000e+00   0.000000e+00
  9.375000e+00   1.000000e+00   0.000000e+00
  9.687500e+00   1.000000e+00   0.000000e+00
  1.000000e+01   1.000000e+00   0.000000e+00

CELLS 512 2560
4 0 1 34 33
4 1 2 35 34
4 2 3 36 35
4 3 4 37 36
4 4 5 38 37
4 5 6 39 38
4 6 7 40 39
4 7 8 41 40
4 8 9 42 41
4 9 10 43 42
4 10 11 44 43
4 11 12 45 44
4 12 13 46 45
4 13 14 47 46
4 14 15 48 47
4 15 16 49 48
4 16 17 50 49
4 17 18 51 50
4 18 19 52 51
4 19 20 53 52
4 20 21 54 53
4 21 22 55 54
4 22 23 56 55
4 23 24 57 56
4 24 25 58 57
4 25 26 59 58
4 26 27 60 59
4 27 28 61 60
4 28 29 62 61
4 29 30 63 62
4 30 31 64 63
4 31 32 65 64
4 33 34 67 66
4 34 35 68 67
4 35 36 69 68
4 36 37 70 69
4 37 38 71 70
4 38 39 72 71
4 39 40 73 72
4 40 41 74 73
4 41 42 75 74
4 42 43 76 75
4 43 44 77 76
4 44 45 78 77
4 45 46 79 78
4 46 47 80 79
4 47 48 81 80
4 48 49 82 81
4 49 50 83 82
4 50 51 84 83
4 51 52 85 84
4 52 53 86 85
4 53 54 87 86
4 54 55 88 87
4 55 56 89 88
4 56 57 90 89
4 57 58 91 90
4 58 59 92 91
4 59 60 93 92
4 60 61 94 93
4 61 62 95 94
4 62 63 96 95
4 63 64 97 96
4 64 65 98 97
4 66 67 100 99
4 67 68 101 100
4 68 69 102 101
4 69 70 103 102
4 70 71 104 103
4 71 72 105 104
4 72 73 106 105
4 73 74 107 106
4 74 75 108 107
4 75 76 109 108
4 76 77 110 109
4 77 78 111 110
4 78 79 112 111
4 79 80 113 112
4 80 81 114 113
4 81 82 115 114
4 82 83 116 115
4 83 84 117 116
4 84 85 118 117
4 85 86 119 118
4 86 87 120 119
4 87 88 121 120
4 88 89 122 121
4 89 90 123 122
4 90 91 124 123
4 91 92 125 124
4 92 93 126 125
4 93 94 127 126
4 94 95 128 127
4 95 96 129 128
4 96 97 130 129
4 97 98 131 130
4 99 100 133 132
4 100 101 134 133
4 101 102 135 134
4 102 103 136 135
4 103 104 137 136
4 104 105 138 137
4 105 106 139 138
4 106 107 140 139
4 107 108 141 140
4 108 109 142 141
4 109 110 143 142
4 110 111 144 143
4 111 112 145 144
4 112 113 146 145
4 113 114 147 146
4 114 115 148 147
4 115 116 149 148
4 116 117 150 149
4 117 118 151 150
4 118 119 152 151
4 119 120 153 152
4 120 121 154 153
4 121 122 155 154
4 122 123 156 155
4 123 124 157 156
4 124 125 158 157
4 125 126 159 158
4 126 127 160 159
4 127 128 161 160
4 128 129 162 161
4 129 130 163 162
4 130 131 164 163
4 132 133 166 165
4 133 134 167 166
4 134 135 168 167
4 135 136 169 168
4 136 137 170 169
4 137 138 171 170
4 138 139 172 171
4 139 140 173 172
4 140 141 174 173
4 141 142 175 174
4 142 143 176 175
4 143 144 177 176
4 144 145 178 177
4 145 146 179 178
4 146 147 180 179
4 147 148 181 180
4 148 149 182 181
4 149 150 183 182
4 150 151 184 183
4 151 152 185 184
4 152 153 186 185
4 153 154 187 186
4 154 155 188 187
4 155 156 189 188
4 156 157 190 189
4 157 158 191 190
4 158 159 192 191
4 159 160 193 192
4 160 161 194 193
4 161 162 195 194
4 162 163 196 195
4 163 164 197 196
4 165 166 199 198
4 166 167 200 199
4 167 168 201 200
4 168 169 202 201
4 169 170 203 202
4 170 171 204 203
4 171 172 205 204
4 172 173 206 205
4 173 174 207 206
4 174 175 208 207
4 175 176 209 208
4 176 177 210 209
4 177 178 211 210
4 178 179 212 211
4 179 180 213 212
4 180 181 214 213
4 181 182 215 214
4 182 183 216 215
4 183 184 217 216
4 184 185 218 217
4 185 186 219 218
4 186 187 220 219
4 187 188 221 220
4 188 189 222 221
4 189 190 223 222
4 190 191 224 223
4 191 192 225 224
4 192 193 226 225
4 193 194 227 226
4 194 195 228 227
4 195 196 229 228
4 196 197 230 229
4 198 199 232 231
4 199 200 233 232
4 200 201 234 233
4 201 202 235 234
4 202 203 236 235
4 203 204 237 236
4 204 205 238 237
4 205 206 239 238
4 206 207 240 239
4 207 208 241 240
4 208 209 242 241
4 209 210 243 242
4 210 211 244 243
4 211 212 245 244
4 212 213 246 245
4 213 214 247 246
4 214 215 248 247
4 215 216 249 248
4 216 217 250 249
4 217 218 251 250
4 218 219 252 251
4 219 220 253 252
4 220 221 254 253
4 221 222 255 254
4 222 223 256 255
4 223 224 257 256
4 224 225 258 257
4 225 226 259 258
4 226 227 260 259
4 227 228 261 260
4 228 229 262 261
4 229 230 263 262
4 231 232 265 264
4 232 233 266 265
4 233 234 267 266
4 234 235 268 267
4 235 236 269 268
4 236 237 270 269
4 237 238 271 270
4 238 239 272 271
4 239 240 273 272
4 240 241 274 273
4 241 242 275 274
4 242 243 276 275
4 243 244 277 276
4 244 245 278 277
4 245 246 279 278
4 246 247 280 279
4 247 248 281 280
4 248 249 282 281
4 249 250 283 282
4 250 251 284 283
4 251 252 285 284
4 252 253 286 285
4 253 254 287 286
4 254 255 288 287
4 255 256 289 288
4 256 257 290 289
4 257 258 291 290
4 258 259 292 291
4 259 260 293 292
4 260 261 294 293
4 261 262 295 294
4 262 263 296 295
4 264 265 298 297
4 265 266 299 298
4 266 267 300 299
4 267 268 301 300
4 268 269 302 301
4 269 270 303 302
4 270 271 304 303
4 271 272 305 304
4 272 273 306 305
4 273 274 307 306
4 274 275 308 307
4 275 276 309 308
4 276 277 310 309
4 277 278 311 310
4 278 279 312 311
4 279 280 313 312
4 280 281 314 313
4 281 282 315 314
4 282 283 316 315
4 283 284 317 316
4 284 285 318 317
4 285 286 319 318
4 286 287 320 319
4 287 288 321 320
4 288 289 322 321
4 289 290 323 322
4 290 291 324 323
4 291 292 325 324
4 292 293 326 325
4 293 294 327 326
4 294 295 328 327
4 295 296 329 328
4 297 298 331 330
4 298 299 332 331
4 299 300 333 332
4 300 301 334 333
4 301 302 335 334
4 302 303 336 335
4 303 304 337 336
4 304 305 338 337
4 305 306 339 338
4 306 307 340 339
4 307 308 341 340
4 308 309 342 341
4 309 310 343 342
4 310 311 344 343
4 311 312 345 344
4 312 313 346 345
4 313 314 347 346
4 314 315 348 347
4 315 316 349 348
4 316 317 350 349
4 317 318 351 350
4 318 319 352 351
4 319 320 353 352
4 320 321 354 353
4 321 322 355 354
4 322 323 356 355
4 323 324 357 356
4 324 325 358 357
4 325 326 359 358
4 326 327 360 359
4 327 328 361 360
4 328 329 362 361
4 330 331 364 363
4 331 332 365 364
4 332 333 366 365
4 333 334 367 366
4 334 335 368 367
4 335 336 369 368
4 336 337 370 369
4 337 338 371 370
4 338 339 372 371
4 339 340 373 372
4 340 341 374 373
4 341 342 375 374
4 342 343 376 375
4 343 344 377 376
4 344 345 378 377
4 345 346 379 378
4 346 347 380 379
4 347 348 381 380
4 348 349 382 381
4 349 350 383 382
4 350 351 384 383
4 351 352 385 384
4 352 353 386 385
4 353 354 387 386
4 354 355 388 387
4 355 356 389 388
4 356 357 390 389
4 357 358 391 390
4 358 359 392 391
4 359 360 393 392
4 360 361 394 393
4 361 362 395 394
4 363 364 397 396
4 364 365 398 397
4 365 366 399 398
4 366 367 400 399
4 367 368 401 400
4 368 369 402 401
4 369 370 403 402
4 370 371 404 403
4 371 372 405 404
4 372 373 406 405
4 373 374 407 406
4 374 375 408 407
4 375 376 409 408
4 376 377 410 409
4 377 378 411 410
4 378 379 412 411
4 379 380 413 412
4 380 381 414 413
4 381 382 415 414
4 382 383 416 415
4 383 384 417 416
4 384 385 418 417
4 385 386 419 418
4 386 387 420 419
4 387 388 421 420
4 388 389 422 421
4 389 390 423 422
4 390 391 424 423
4 391 392 425 424
4 392 393 426 425
4 393 394 427 426
4 394 395 428 427
4 396 397 430 429
4 397 398 431 430
4 398 399 432 431
4 399 400 433 432
4 400 401 434 433
4 401 402 435 434
4 402 403 436 435
4 403 404 437 436
4 404 405 438 437
4 405 406 439 438
4 406 407 440 439
4 407 408 441 440
4 408 409 442 441
4 409 410 443 442
4 410 411 444 443
4 411 412 445 444
4 412 413 446 445
4 413 414 447 446
4 414 415 448 447
4 415 416 449 448
4 416 417 450 449
4 417 418 451 450
4 418 419 452 451
4 419 420 453 452
4 420 421 454 453
4 421 422 455 454
4 422 423 456 455
4 423 424 457 456
4 424 425 458 457
4 425 426 459 458
4 426 427 460 459
4 427 428 461 460
4 429 430 463 462
4 430 431 464 463
4 431 432 465 464
4 432 433 466 465
4 433 434 467 466
4 434 435 468 467
4 435 436 469 468
4 436 437 470 469
4 437 438 471 470
4 438 439 472 471
4 439 440 473 472
4 440 441 474 473
4 441 442 475 474
4 442 443 476 475
4 443 444 477 476
4 444 445 478 477
4 445 446 479 478
4 446 447 480 479
4 447 448 481 480
4 448 449 482 481
4 449 450 483 482
4 450 451 484 483
4 451 452 485 484
4 452 453 486 485
4 453 454 487 486
4 454 455 488 487
4 455 456 489 488
4 456 457 490 489
4 457 458 491 490
4 458 459 492 491
4 459 460 493 492
4 460 461 494 493
4 462 463 496 495
4 463 464 497 496
4 464 465 498 497
4 465 466 499 498
4 466 467 500 499
4 467 468 501 500
4 468 469 502 501
4 469 470 503 502
4 470 471 504 503
4 471 472 505 504
4 472 473 506 505
4 473 474 507 506
4 474 475 508 507
4 475 476 509 508
4 476 477 510 509
4 477 478 511 510
4 478 479 512 511
4 479 480 513 512
4 480 481 514 513
4 481 482 515 514
4 482 483 516 515
4 483 484 517 516
4 484 485 518 517
4 485 486 519 518
4 486 487 520 519
4 487 488 521 520
4 488 489 522 521
4 489 490 523 522
4 490 491 524 523
4 491 492 525 524
4 492 493 526 525
4 493 494 527 526
4 495 496 529 528
4 496 497 530 529
4 497 498 531 530
4 498 499 532 531
4 499 500 533 532
4 500 501 534 533
4 501 502 535 534
4 502 503 536 535
4 503 504 537 536
4 504 505 538 537
4 505 506 539 538
4 506 507 540 539
4 507 508 541 540
4 508 509 542 541
4 509 510 543 542
4 510 511 544 543
4 511 512 545 544
4 512 513 546 545
4 513 514 547 546
4 514 515 548 547
4 515 516 549 548
4 516 517 550 549
4 517 518 551 550
4 518 519 552 551
4 519 520 553 552
4 520 521 554 553
4 521 522 555 554
4 522 523 556 555
4 523 524 557 556
4 524 525 558 557
4 525 526 559 558
4 526 527 560 559

CELL_TYPES 512
9
9
9
9
9
9
9
9
9
9
9
9
9
9
9
9
9
9
9
9
9
9
9
9
9
9
9
9
9
9
9
9
9
9
9
9
9
9
9
9
9
9
9
9
9
9
9
9
9
9
9
9
9
9
9
9
9
9
9
9
9
9
9
9
9
9
9
9
9
9
9
9
9
9
9
9
9
9
9
9
9
9
9
9
9
9
9
9
9
9
9
9
9
9
9
9
9
9
9
9
9
9
9
9
9
9
9
9
9
9
9
9
9
9
9
9
9
9
9
9
9
9
9
9
9
9
9
9
9
9
9
9
9
9
9
9
9
9
9
9
9
9
9
9
9
9
9
9
9
9
9
9
9
9
9
9
9
9
9
9
9
9
9
9
9
9
9
9
9
9
9
9
9
9
9
9
9
9
9
9
9
9
9
9
9
9
9
9
9
9
9
9
9
9
9
9
9
9
9
9
9
9
9
9
9
9
9
9
9
9
9
9
9
9
9
9
9
9
9
9
9
9
9
9
9
9
9
9
9
9
9
9
9
9
9
9
9
9
9
9
9
9
9
9
9
9
9
9
9
9
9
9
9
9
9
9
9
9
9
9
9
9
9
9
9
9
9
9
9
9
9
9
9
9
9
9
9
9
9
9
9
9
9
9
9
9
9
9
9
9
9
9
9
9
9
9
9
9
9
9
9
9
9
9
9
9
9
9
9
9
9
9
9
9
9
9
9
9
9
9
9
9
9
9
9
9
9
9
9
9
9
9
9
9
9
9
9
9
9
9
9
9
9
9
9
9
9
9
9
9
9
9
9
9
9
9
9
9
9
9
9
9
9
9
9
9
9
9
9
9
9
9
9
9
9
9
9
9
9
9
9
9
9
9
9
9
9
9
9
9
9
9
9
9
9
9
9
9
9
9
9
9
9
9
9
9
9
9
9
9
9
9
9
9
9
9
9
9
9
9
9
9
9
9
9
9
9
9
9
9
9
9
9
9
9
9
9
9
9
9
9
9
9
9
9
9
9
9
9
9
9
9
9
9
9
9
9
9
9
9
9
9
9
9
9
9
9
9
9
9
9
9
9
9
9
9
9
9
9
9
9
9
9
9
9
9
9
9
9
9
9
9
9
9
9
9
9
9
9
9
9
9
9
9
9
9
9
9
9
9
9
9

POINT_DATA 561
VECTORS Displacement float
  0.000000e+00   0.000000e+00   0.000000e+00
 -8.882410e-05  -4.745180e-05   0.000000e+00
 -1.728690e-04  -1.311470e-04   0.000000e+00
 -2.563100e-04  -2.689060e-04   0.000000e+00
 -3.367580e-04  -4.578270e-04   0.000000e+00
 -4.143850e-04  -6.961810e-04   0.000000e+00
 -4.891820e-04  -9.821570e-04   0.000000e+00
 -5.611570e-04  -1.314000e-03   0.000000e+00
 -6.303110e-04  -1.689950e-03   0.000000e+00
 -6.966410e-04  -2.108230e-03   0.000000e+00
 -7.601490e-04  -2.567090e-03   0.000000e+00
 -8.208350e-04  -3.064760e-03   0.000000e+00
 -8.786980e-04  -3.599480e-03   0.000000e+00
 -9.337380e-04  -4.169480e-03   0.000000e+00
 -9.859560e-04  -4.773000e-03   0.000000e+00
 -1.035350e-03  -5.408270e-03   0.000000e+00
 -1.081920e-03  -6.073530e-03   0.000000e+00
 -1.125670e-03  -6.767010e-03   0.000000e+00
 -1.166600e-03  -7.486960e-03   0.000000e+00
 -1.204710e-03  -8.231610e-03   0.000000e+00
 -1.239990e-03  -8.999190e-03   0.000000e+00
 -1.272450e-03  -9.787940e-03   0.000000e+00
 -1.302080e-03  -1.059610e-02   0.000000e+00
 -1.328900e-03  -1.142190e-02   0.000000e+00
 -1.352890e-03  -1.226360e-02   0.000000e+00
 -1.374060e-03  -1.311930e-02   0.000000e+00
 -1.392410e-03  -1.398750e-02   0.000000e+00
 -1.407930e-03  -1.486620e-02   0.000000e+00
 -1.420630e-03  -1.575370e-02   0.000000e+00
 -1.430510e-03  -1.664830e-02   0.000000e+00
 -1.437540e-03  -1.754820e-02   0.000000e+00
 -1.441980e-03  -1.845150e-02   0.000000e+00
 -1.443800e-03  -1.935820e-02   0.000000e+00
  0.000000e+00   0.000000e+00   0.000000e+00
 -7.549310e-05  -4.145000e-05   0.000000e+00
 -1.510870e-04  -1.266580e-04   0.000000e+00
 -2.236390e-04  -2.642400e-04   0.000000e+00
 -2.941100e-04  -4.533950e-04   0.000000e+00
 -3.620150e-04  -6.918910e-04   0.000000e+00
 -4.274670e-04  -9.780300e-04   0.000000e+00
 -4.904450e-04  -1.310030e-03   0.000000e+00
 -5.509540e-04  -1.686140e-03   0.000000e+00
 -6.089930e-04  -2.104580e-03   0.000000e+00
 -6.645630e-04  -2.563600e-03   0.000000e+00
 -7.176630e-04  -3.061430e-03   0.000000e+00
 -7.682930e-04  -3.596300e-03   0.000000e+00
 -8.164530e-04  -4.166460e-03   0.000000e+00
 -8.621430e-04  -4.770140e-03   0.000000e+00
 -9.053640e-04  -5.405570e-03   0.000000e+00
 -9.461150e-04  -6.070990e-03   0.000000e+00
 -9.843960e-04  -6.764630e-03   0.000000e+00
 -1.020210e-03  -7.484740e-03   0.000000e+00
 -1.053550e-03  -8.229540e-03   0.000000e+00
 -1.084420e-03  -8.997280e-03   0.000000e+00
 -1.112820e-03  -9.786190e-03   0.000000e+00
 -1.138760e-03  -1.059450e-02   0.000000e+00
 -1.162220e-03  -1.142050e-02   0.000000e+00
 -1.183210e-03  -1.226230e-02   0.000000e+00
 -1.201740e-03  -1.311820e-02   0.000000e+00
 -1.217790e-03  -1.398650e-02   0.000000e+00
 -1.231370e-03  -1.486540e-02   0.000000e+00
 -1.242490e-03  -1.575310e-02   0.000000e+00
 -1.251130e-03  -1.664790e-02   0.000000e+00
 -1.257310e-03  -1.754790e-02   0.000000e+00
 -1.261070e-03  -1.845140e-02   0.000000e+00
 -1.262530e-03  -1.935790e-02   0.000000e+00
  0.000000e+00   0.000000e+00   0.000000e+00
 -6.349620e-05  -3.657960e-05   0.000000e+00
 -1.290290e-04  -1.225420e-04   0.000000e+00
 -1.913220e-04  -2.602670e-04   0.000000e+00
 -2.516590e-04  -4.495340e-04   0.000000e+00
 -3.098800e-04  -6.881780e-04   0.000000e+00
 -3.659770e-04  -9.744510e-04   0.000000e+00
 -4.199590e-04  -1.306590e-03   0.000000e+00
 -4.718240e-04  -1.682830e-03   0.000000e+00
 -5.215720e-04  -2.101420e-03   0.000000e+00
 -5.692030e-04  -2.560570e-03   0.000000e+00
 -6.147170e-04  -3.058540e-03   0.000000e+00
 -6.581150e-04  -3.593550e-03   0.000000e+00
 -6.993950e-04  -4.163850e-03   0.000000e+00
 -7.385580e-04  -4.767660e-03   0.000000e+00
 -7.756040e-04  -5.403230e-03   0.000000e+00
 -8.105340e-04  -6.068790e-03   0.000000e+00
 -8.433460e-04  -6.762570e-03   0.000000e+00
 -8.740420e-04  -7.482810e-03   0.000000e+00
 -9.026210e-04  -8.227760e-03   0.000000e+00
 -9.290820e-04  -8.995630e-03   0.000000e+00
 -9.534270e-04  -9.784680e-03   0.000000e+00
 -9.756550e-04  -1.059310e-02   0.000000e+00
 -9.957660e-04  -1.141920e-02   0.000000e+00
 -1.013760e-03  -1.226120e-02   0.000000e+00
 -1.029640e-03  -1.311730e-02   0.000000e+00
 -1.043400e-03  -1.398570e-02   0.000000e+00
 -1.055040e-03  -1.486470e-02   0.000000e+00
 -1.064570e-03  -1.575260e-02   0.000000e+00
 -1.071970e-03  -1.664740e-02   0.000000e+00
 -1.077280e-03  -1.754760e-02   0.000000e+00
 -1.080390e-03  -1.845130e-02   0.000000e+00
 -1.081600e-03  -1.935760e-02   0.000000e+00
  0.000000e+00   0.000000e+00   0.000000e+00
 -5.223660e-05  -3.269320e-05   0.000000e+00
 -1.070790e-04  -1.189450e-04   0.000000e+00
 -1.591810e-04  -2.569180e-04   0.000000e+00
 -2.094160e-04  -4.462700e-04   0.000000e+00
 -2.579360e-04  -6.850350e-04   0.000000e+00
 -3.046830e-04  -9.714240e-04   0.000000e+00
 -3.496690e-04  -1.303680e-03   0.000000e+00
 -3.928890e-04  -1.680040e-03   0.000000e+00
 -4.343460e-04  -2.098740e-03   0.000000e+00
 -4.740380e-04  -2.558010e-03   0.000000e+00
 -5.119670e-04  -3.056090e-03   0.000000e+00
 -5.481310e-04  -3.591220e-03   0.000000e+00
 -5.825310e-04  -4.161630e-03   0.000000e+00
 -6.151680e-04  -4.765560e-03   0.000000e+00
 -6.460390e-04  -5.401250e-03   0.000000e+00
 -6.751470e-04  -6.066920e-03   0.000000e+00
 -7.024910e-04  -6.760820e-03   0.000000e+00
 -7.280710e-04  -7.481180e-03   0.000000e+00
 -7.518860e-04  -8.226240e-03   0.000000e+00
 -7.739380e-04  -8.994230e-03   0.000000e+00
 -7.942250e-04  -9.783400e-03   0.000000e+00
 -8.127480e-04  -1.059200e-02   0.000000e+00
 -8.295070e-04  -1.141820e-02   0.000000e+00
 -8.445020e-04  -1.226030e-02   0.000000e+00
 -8.577330e-04  -1.311650e-02   0.000000e+00
 -8.692000e-04  -1.398500e-02   0.000000e+00
 -8.789020e-04  -1.486410e-02   0.000000e+00
 -8.868410e-04  -1.575210e-02   0.000000e+00
 -8.930180e-04  -1.664710e-02   0.000000e+00
 -8.974300e-04  -1.754740e-02   0.000000e+00
 -8.999500e-04  -1.845120e-02   0.000000e+00
 -9.009360e-04  -1.935730e-02   0.000000e+00
  0.000000e+00   0.000000e+00   0.000000e+00
 -4.141570e-05  -2.966630e-05   0.000000e+00
 -8.533820e-05  -1.159460e-04   0.000000e+00
 -1.271700e-04  -2.541700e-04   0.000000e+00
 -1.673430e-04  -4.436040e-04   0.000000e+00
 -2.061520e-04  -6.824630e-04   0.000000e+00
 -2.435520e-04  -9.689470e-04   0.000000e+00
 -2.795400e-04  -1.301300e-03   0.000000e+00
 -3.141170e-04  -1.677750e-03   0.000000e+00
 -3.472820e-04  -2.096550e-03   0.000000e+00
 -3.790360e-04  -2.555910e-03   0.000000e+00
 -4.093790e-04  -3.054090e-03   0.000000e+00
 -4.383100e-04  -3.589320e-03   0.000000e+00
 -4.658300e-04  -4.159820e-03   0.000000e+00
 -4.919390e-04  -4.763850e-03   0.000000e+00
 -5.166370e-04  -5.399630e-03   0.000000e+00
 -5.399230e-04  -6.065400e-03   0.000000e+00
 -5.617980e-04  -6.759390e-03   0.000000e+00
 -5.822620e-04  -7.479850e-03   0.000000e+00
 -6.013140e-04  -8.225000e-03   0.000000e+00
 -6.189550e-04  -8.993090e-03   0.000000e+00
 -6.351850e-04  -9.782350e-03   0.000000e+00
 -6.500040e-04  -1.059100e-02   0.000000e+00
 -6.634110e-04  -1.141730e-02   0.000000e+00
 -6.754070e-04  -1.225950e-02   0.000000e+00
 -6.859920e-04  -1.311580e-02   0.000000e+00
 -6.951650e-04  -1.398440e-02   0.000000e+00
 -7.029270e-04  -1.486370e-02   0.000000e+00
 -7.092780e-04  -1.575170e-02   0.000000e+00
 -7.142230e-04  -1.664680e-02   0.000000e+00
 -7.177410e-04  -1.754720e-02   0.000000e+00
 -7.197100e-04  -1.845120e-02   0.000000e+00
 -7.204910e-04  -1.935700e-02   0.000000e+00
  0.000000e+00   0.000000e+00   0.000000e+00
 -3.086880e-05  -2.740270e-05   0.000000e+00
 -6.380550e-05  -1.135890e-04   0.000000e+00
 -9.526860e-05  -2.520250e-04   0.000000e+00
 -1.253990e-04  -4.415340e-04   0.000000e+00
 -1.545000e-04  -6.804620e-04   0.000000e+00
 -1.825510e-04  -9.670210e-04   0.000000e+00
 -2.095410e-04  -1.299450e-03   0.000000e+00
 -2.354740e-04  -1.675980e-03   0.000000e+00
 -2.603480e-04  -2.094840e-03   0.000000e+00
 -2.841630e-04  -2.554280e-03   0.000000e+00
 -3.069200e-04  -3.052540e-03   0.000000e+00
 -3.286190e-04  -3.587840e-03   0.000000e+00
 -3.492590e-04  -4.158420e-03   0.000000e+00
 -3.688410e-04  -4.762520e-03   0.000000e+00
 -3.873640e-04  -5.398370e-03   0.000000e+00
 -4.048290e-04  -6.064210e-03   0.000000e+00
 -4.212350e-04  -6.758280e-03   0.000000e+00
 -4.365830e-04  -7.478810e-03   0.000000e+00
 -4.508720e-04  -8.224040e-03   0.000000e+00
 -4.641030e-04  -8.992200e-03   0.000000e+00
 -4.762750e-04  -9.781530e-03   0.000000e+00
 -4.873890e-04  -1.059030e-02   0.000000e+00
 -4.974450e-04  -1.141660e-02   0.000000e+00
 -5.064420e-04  -1.225890e-02   0.000000e+00
 -5.143800e-04  -1.311530e-02   0.000000e+00
 -5.212600e-04  -1.398400e-02   0.000000e+00
 -5.270820e-04  -1.486330e-02   0.000000e+00
 -5.318450e-04  -1.575140e-02   0.000000e+00
 -5.355550e-04  -1.664660e-02   0.000000e+00
 -5.381860e-04  -1.754710e-02   0.000000e+00
 -5.396340e-04  -1.845110e-02   0.000000e+00
 -5.402180e-04  -1.935670e-02   0.000000e+00
  0.000000e+00   0.000000e+00   0.000000e+00
 -2.049470e-05  -2.583250e-05   0.000000e+00
 -4.244090e-05  -1.118960e-04   0.000000e+00
 -6.345790e-05  -2.504860e-04   0.000000e+00
 -8.354820e-05  -4.400570e-04   0.000000e+00
 -1.029450e-04  -6.790330e-04   0.000000e+00
 -1.216460e-04  -9.656450e-04   0.000000e+00
 -1.396400e-04  -1.298120e-03   0.000000e+00
 -1.569280e-04  -1.674710e-03   0.000000e+00
 -1.735110e-04  -2.093630e-03   0.000000e+00
 -1.893880e-04  -2.553120e-03   0.000000e+00
 -2.045600e-04  -3.051430e-03   0.000000e+00
 -2.190250e-04  -3.586780e-03   0.000000e+00
 -2.327850e-04  -4.157410e-03   0.000000e+00
 -2.458400e-04  -4.761560e-03   0.000000e+00
 -2.581890e-04  -5.397470e-03   0.000000e+00
 -2.698320e-04  -6.063370e-03   0.000000e+00
 -2.807690e-04  -6.757490e-03   0.000000e+00
 -2.910010e-04  -7.478070e-03   0.000000e+00
 -3.005270e-04  -8.223350e-03   0.000000e+00
 -3.093480e-04  -8.991570e-03   0.000000e+00
 -3.174630e-04  -9.780950e-03   0.000000e+00
 -3.248720e-04  -1.058970e-02   0.000000e+00
 -3.315760e-04  -1.141620e-02   0.000000e+00
 -3.375740e-04  -1.225850e-02   0.000000e+00
 -3.428660e-04  -1.311490e-02   0.000000e+00
 -3.474530e-04  -1.398370e-02   0.000000e+00
 -3.513340e-04  -1.486300e-02   0.000000e+00
 -3.545100e-04  -1.575120e-02   0.000000e+00
 -3.569840e-04  -1.664640e-02   0.000000e+00
 -3.587320e-04  -1.754700e-02   0.000000e+00
 -3.596850e-04  -1.845110e-02   0.000000e+00
 -3.600740e-04  -1.935650e-02   0.000000e+00
  0.000000e+00   0.000000e+00   0.000000e+00
 -1.022320e-05  -2.490850e-05   0.000000e+00
 -2.119140e-05  -1.108770e-04   0.000000e+00
 -3.171210e-05  -2.495590e-04   0.000000e+00
 -4.175890e-05  -4.391710e-04   0.000000e+00
 -5.145620e-05  -6.781750e-04   0.000000e+00
 -6.080680e-05  -9.648190e-04   0.000000e+00
 -6.980390e-05  -1.297330e-03   0.000000e+00
 -7.844800e-05  -1.673940e-03   0.000000e+00
 -8.673930e-05  -2.092900e-03   0.000000e+00
 -9.467790e-05  -2.552420e-03   0.000000e+00
 -1.022640e-04  -3.050760e-03   0.000000e+00
 -1.094960e-04  -3.586140e-03   0.000000e+00
 -1.163760e-04  -4.156810e-03   0.000000e+00
 -1.229040e-04  -4.760990e-03   0.000000e+00
 -1.290780e-04  -5.396930e-03   0.000000e+00
 -1.349000e-04  -6.062860e-03   0.000000e+00
 -1.403680e-04  -6.757010e-03   0.000000e+00
 -1.454840e-04  -7.477630e-03   0.000000e+00
 -1.502470e-04  -8.222940e-03   0.000000e+00
 -1.546580e-04  -8.991190e-03   0.000000e+00
 -1.587150e-04  -9.780600e-03   0.000000e+00
 -1.624200e-04  -1.058940e-02   0.000000e+00
 -1.657720e-04  -1.141590e-02   0.000000e+00
 -1.687710e-04  -1.225820e-02   0.000000e+00
 -1.714170e-04  -1.311470e-02   0.000000e+00
 -1.737100e-04  -1.398350e-02   0.000000e+00
 -1.756510e-04  -1.486290e-02   0.000000e+00
 -1.772390e-04  -1.575110e-02   0.000000e+00
 -1.784760e-04  -1.664630e-02   0.000000e+00
 -1.793480e-04  -1.754690e-02   0.000000e+00
 -1.798210e-04  -1.845110e-02   0.000000e+00
 -1.800160e-04  -1.935640e-02   0.000000e+00
  0.000000e+00   0.000000e+00   0.000000e+00
  2.431190e-17  -2.460340e-05   0.000000e+00
  5.081440e-17  -1.105370e-04   0.000000e+00
  7.746010e-17  -2.492500e-04   0.000000e+00
  1.042250e-16  -4.388760e-04   0.000000e+00
  1.308560e-16  -6.778900e-04   0.000000e+00
  1.575160e-16  -9.645440e-04   0.000000e+00
  1.865200e-16  -1.297070e-03   0.000000e+00
  2.123680e-16  -1.673690e-03   0.000000e+00
  2.362970e-16  -2.092650e-03   0.000000e+00
  2.674020e-16  -2.552190e-03   0.000000e+00
  3.011570e-16  -3.050540e-03   0.000000e+00
  3.250780e-16  -3.585930e-03   0.000000e+00
  3.422720e-16  -4.156610e-03   0.000000e+00
  3.658780e-16  -4.760800e-03   0.000000e+00
  3.977260e-16  -5.396750e-03   0.000000e+00
  4.292700e-16  -6.062690e-03   0.000000e+00
  4.571270e-16  -6.756850e-03   0.000000e+00
  4.976830e-16  -7.477480e-03   0.000000e+00
  5.317540e-16  -8.222800e-03   0.000000e+00
  5.634190e-16  -8.991060e-03   0.000000e+00
  5.773920e-16  -9.780490e-03   0.000000e+00
  5.614130e-16  -1.058930e-02   0.000000e+00
  5.819730e-16  -1.141580e-02   0.000000e+00
  6.296100e-16  -1.225810e-02   0.000000e+00
  6.434200e-16  -1.311460e-02   0.000000e+00
  6.239180e-16  -1.398340e-02   0.000000e+00
  6.432440e-16  -1.486280e-02   0.000000e+00
  6.723000e-16  -1.575100e-02   0.000000e+00
  6.852970e-16  -1.664630e-02   0.000000e+00
  6.987410e-16  -1.754690e-02   0.000000e+00
  7.338960e-16  -1.845110e-02   0.000000e+00
  7.507020e-16  -1.935630e-02   0.000000e+00
  0.000000e+00   0.000000e+00   0.000000e+00
  1.022320e-05  -2.490850e-05   0.000000e+00
  2.119140e-05  -1.108770e-04   0.000000e+00
  3.171210e-05  -2.495590e-04   0.000000e+00
  4.175890e-05  -4.391710e-04   0.000000e+00
  5.145620e-05  -6.781750e-04   0.000000e+00
  6.080680e-05  -9.648190e-04   0.000000e+00
  6.980390e-05  -1.297330e-03   0.000000e+00
  7.844800e-05  -1.673940e-03   0.000000e+00
  8.673930e-05  -2.092900e-03   0.000000e+00
  9.467790e-05  -2.552420e-03   0.000000e+00
  1.022640e-04  -3.050760e-03   0.000000e+00
  1.094960e-04  -3.586140e-03   0.000000e+00
  1.163760e-04  -4.156810e-03   0.000000e+00
  1.229040e-04  -4.760990e-03   0.000000e+00
  1.290780e-04  -5.396930e-03   0.000000e+00
  1.349000e-04  -6.062860e-03   0.000000e+00
  1.403680e-04  -6.757010e-03   0.000000e+00
  1.454840e-04  -7.477630e-03   0.000000e+00
  1.502470e-04  -8.222940e-03   0.000000e+00
  1.546580e-04  -8.991190e-03   0.000000e+00
  1.587150e-04  -9.780600e-03   0.000000e+00
  1.624200e-04  -1.058940e-02   0.000000e+00
  1.657720e-04  -1.141590e-02   0.000000e+00
  1.687710e-04  -1.225820e-02   0.000000e+00
  1.714170e-04  -1.311470e-02   0.000000e+00
  1.737100e-04  -1.398350e-02   0.000000e+00
  1.756510e-04  -1.486290e-02   0.000000e+00
  1.772390e-04  -1.575110e-02   0.000000e+00
  1.784760e-04  -1.664630e-02   0.000000e+00
  1.793480e-04  -1.754690e-02   0.000000e+00
  1.798210e-04  -1.845110e-02   0.000000e+00
  1.800160e-04  -1.935640e-02   0.000000e+00
  0.000000e+00   0.000000e+00   0.000000e+00
  2.049470e-05  -2.583250e-05   0.000000e+00
  4.244090e-05  -1.118960e-04   0.000000e+00
  6.345790e-05  -2.504860e-04   0.000000e+00
  8.354820e-05  -4.400570e-04   0.000000e+00
  1.029450e-04  -6.790330e-04   0.000000e+00
  1.216460e-04  -9.656450e-04   0.000000e+00
  1.396400e-04  -1.298120e-03   0.000000e+00
  1.569280e-04  -1.674710e-03   0.000000e+00
  1.735110e-04  -2.093630e-03   0.000000e+00
  1.893880e-04  -2.553120e-03   0.000000e+00
  2.045600e-04  -3.051430e-03   0.000000e+00
  2.190250e-04  -3.586780e-03   0.000000e+00
  2.327850e-04  -4.157410e-03   0.000000e+00
  2.458400e-04  -4.761560e-03   0.000000e+00
  2.581890e-04  -5.397470e-03   0.000000e+00
  2.698320e-04  -6.063370e-03   0.000000e+00
  2.807690e-04  -6.757490e-03   0.000000e+00
  2.910010e-04  -7.478070e-03   0.000000e+00
  3.005270e-04  -8.223350e-03   0.000000e+00
  3.093480e-04  -8.991570e-03   0.000000e+00
  3.174630e-04  -9.780950e-03   0.000000e+00
  3.248720e-04  -1.058970e-02   0.000000e+00
  3.315760e-04  -1.141620e-02   0.000000e+00
  3.375740e-04  -1.225850e-02   0.000000e+00
  3.428660e-04  -1.311490e-02   0.000000e+00
  3.474530e-04  -1.398370e-02   0.000000e+00
  3.513340e-04  -1.486300e-02   0.000000e+00
  3.545100e-04  -1.575120e-02   0.000000e+00
  3.569840e-04  -1.664640e-02   0.000000e+00
  3.587320e-04  -1.754700e-02   0.000000e+00
  3.596850e-04  -1.845110e-02   0.000000e+00
  3.600740e-04  -1.935650e-02   0.000000e+00
  0.000000e+00   0.000000e+00   0.000000e+00
  3.086880e-05  -2.740270e-05   0.000000e+00
  6.380550e-05  -1.135890e-04   0.000000e+00
  9.526860e-05  -2.520250e-04   0.000000e+00
  1.253990e-04  -4.415340e-04   0.000000e+00
  1.545000e-04  -6.804620e-04   0.000000e+00
  1.825510e-04  -9.670210e-04   0.000000e+00
  2.095410e-04  -1.299450e-03   0.000000e+00
  2.354740e-04  -1.675980e-03   0.000000e+00
  2.603480e-04  -2.094840e-03   0.000000e+00
  2.841630e-04  -2.554280e-03   0.000000e+00
  3.069200e-04  -3.052540e-03   0.000000e+00
  3.286190e-04  -3.587840e-03   0.000000e+00
  3.492590e-04  -4.158420e-03   0.000000e+00
  3.688410e-04  -4.762520e-03   0.000000e+00
  3.873640e-04  -5.398370e-03   0.000000e+00
  4.048290e-04  -6.064210e-03   0.000000e+00
  4.212350e-04  -6.758280e-03   0.000000e+00
  4.365830e-04  -7.478810e-03   0.000000e+00
  4.508720e-04  -8.224040e-03   0.000000e+00
  4.641030e-04  -8.992200e-03   0.000000e+00
  4.762750e-04  -9.781530e-03   0.000000e+00
  4.873890e-04  -1.059030e-02   0.000000e+00
  4.974450e-04  -1.141660e-02   0.000000e+00
  5.064420e-04  -1.225890e-02   0.000000e+00
  5.143800e-04  -1.311530e-02   0.000000e+00
  5.212600e-04  -1.398400e-02   0.000000e+00
  5.270820e-04  -1.486330e-02   0.000000e+00
  5.318450e-04  -1.575140e-02   0.000000e+00
  5.355550e-04  -1.664660e-02   0.000000e+00
  5.381860e-04  -1.754710e-02   0.000000e+00
  5.396340e-04  -1.845110e-02   0.000000e+00
  5.402180e-04  -1.935670e-02   0.000000e+00
  0.000000e+00   0.000000e+00   0.000000e+00
  4.141570e-05  -2.966630e-05   0.000000e+00
  8.533820e-05  -1.159460e-04   0.000000e+00
  1.271700e-04  -2.541700e-04   0.000000e+00
  1.673430e-04  -4.436040e-04   0.000000e+00
  2.061520e-04  -6.824630e-04   0.000000e+00
  2.435520e-04  -9.689470e-04   0.000000e+00
  2.795400e-04  -1.301300e-03   0.000000e+00
  3.141170e-04  -1.677750e-03   0.000000e+00
  3.472820e-04  -2.096550e-03   0.000000e+00
  3.790360e-04  -2.555910e-03   0.000000e+00
  4.093790e-04  -3.054090e-03   0.000000e+00
  4.383100e-04  -3.589320e-03   0.000000e+00
  4.658300e-04  -4.159820e-03   0.000000e+00
  4.919390e-04  -4.763850e-03   0.000000e+00
  5.166370e-04  -5.399630e-03   0.000000e+00
  5.399230e-04  -6.065400e-03   0.000000e+00
  5.617980e-04  -6.759390e-03   0.000000e+00
  5.822620e-04  -7.479850e-03   0.000000e+00
  6.013140e-04  -8.225000e-03   0.000000e+00
  6.189550e-04  -8.993090e-03   0.000000e+00
  6.351850e-04  -9.782350e-03   0.000000e+00
  6.500040e-04  -1.059100e-02   0.000000e+00
  6.634110e-04  -1.141730e-02   0.000000e+00
  6.754070e-04  -1.225950e-02   0.000000e+00
  6.859920e-04  -1.311580e-02   0.000000e+00
  6.951650e-04  -1.398440e-02   0.000000e+00
  7.029270e-04  -1.486370e-02   0.000000e+00
  7.092780e-04  -1.575170e-02   0.000000e+00
  7.142230e-04  -1.664680e-02   0.000000e+00
  7.177410e-04  -1.754720e-02   0.000000e+00
  7.197100e-04  -1.845120e-02   0.000000e+00
  7.204910e-04  -1.935700e-02   0.000000e+00
  0.000000e+00   0.000000e+00   0.000000e+00
  5.223660e-05  -3.269320e-05   0.000000e+00
  1.070790e-04  -1.189450e-04   0.000000e+00
  1.591810e-04  -2.569180e-04   0.000000e+00
  2.094160e-04  -4.462700e-04   0.000000e+00
  2.579360e-04  -6.850350e-04   0.000000e+00
  3.046830e-04  -9.714240e-04   0.000000e+00
  3.496690e-04  -1.303680e-03   0.000000e+00
  3.928890e-04  -1.680040e-03   0.000000e+00
  4.343460e-04  -2.098740e-03   0.000000e+00
  4.740380e-04  -2.558010e-03   0.000000e+00
  5.119670e-04  -3.056090e-03   0.000000e+00
  5.481310e-04  -3.591220e-03   0.000000e+00
  5.825310e-04  -4.161630e-03   0.000000e+00
  6.151680e-04  -4.765560e-03   0.000000e+00
  6.460390e-04  -5.401250e-03   0.000000e+00
  6.751470e-04  -6.066920e-03   0.000000e+00
  7.024910e-04  -6.760820e-03   0.000000e+00
  7.280710e-04  -7.481180e-03   0.000000e+00
  7.518860e-04  -8.226240e-03   0.000000e+00
  7.739380e-04  -8.994230e-03   0.000000e+00
  7.942250e-04  -9.783400e-03   0.000000e+00
  8.127480e-04  -1.059200e-02   0.000000e+00
  8.295070e-04  -1.141820e-02   0.000000e+00
  8.445020e-04  -1.226030e-02   0.000000e+00
  8.577330e-04  -1.311650e-02   0.000000e+00
  8.692000e-04  -1.398500e-02   0.000000e+00
  8.789020e-04  -1.486410e-02   0.000000e+00
  8.868410e-04  -1.575210e-02   0.000000e+00
  8.930180e-04  -1.664710e-02   0.000000e+00
  8.974300e-04  -1.754740e-02   0.000000e+00
  8.999500e-04  -1.845120e-02   0.000000e+00
  9.009360e-04  -1.935730e-02   0.000000e+00
  0.000000e+00   0.000000e+00   0.000000e+00
  6.349620e-05  -3.657960e-05   0.000000e+00
  1.290290e-04  -1.225420e-04   0.000000e+00
  1.913220e-04  -2.602670e-04   0.000000e+00
  2.516590e-04  -4.495340e-04   0.000000e+00
  3.098800e-04  -6.881780e-04   0.000000e+00
  3.659770e-04  -9.744510e-04   0.000000e+00
  4.199590e-04  -1.306590e-03   0.000000e+00
  4.718240e-04  -1.682830e-03   0.000000e+00
  5.215720e-04  -2.101420e-03   0.000000e+00
  5.692030e-04  -2.560570e-03   0.000000e+00
  6.147170e-04  -3.058540e-03   0.000000e+00
  6.581150e-04  -3.593550e-03   0.000000e+00
  6.993950e-04  -4.163850e-03   0.000000e+00
  7.385580e-04  -4.767660e-03   0.000000e+00
  7.756040e-04  -5.403230e-03   0.000000e+00
  8.105340e-04  -6.068790e-03   0.000000e+00
  8.433460e-04  -6.762570e-03   0.000000e+00
  8.740420e-04  -7.482810e-03   0.000000e+00
  9.026210e-04  -8.227760e-03   0.000000e+00
  9.290820e-04  -8.995630e-03   0.000000e+00
  9.534270e-04  -9.784680e-03   0.000000e+00
  9.756550e-04  -1.059310e-02   0.000000e+00
  9.957660e-04  -1.141920e-02   0.000000e+00
  1.013760e-03  -1.226120e-02   0.000000e+00
  1.029640e-03  -1.311730e-02   0.000000e+00
  1.043400e-03  -1.398570e-02   0.000000e+00
  1.055040e-03  -1.486470e-02   0.000000e+00
  1.064570e-03  -1.575260e-02   0.000000e+00
  1.071970e-03  -1.664740e-02   0.000000e+00
  1.077280e-03  -1.754760e-02   0.000000e+00
  1.080390e-03  -1.845130e-02   0.000000e+00
  1.081600e-03  -1.935760e-02   0.000000e+00
  0.000000e+00   0.000000e+00   0.000000e+00
  7.549310e-05  -4.145000e-05   0.000000e+00
  1.510870e-04  -1.266580e-04   0.000000e+00
  2.236390e-04  -2.642400e-04   0.000000e+00
  2.941100e-04  -4.533950e-04   0.000000e+00
  3.620150e-04  -6.918910e-04   0.000000e+00
  4.274670e-04  -9.780300e-04   0.000000e+00
  4.904450e-04  -1.310030e-03   0.000000e+00
  5.509540e-04  -1.686140e-03   0.000000e+00
  6.089930e-04  -2.104580e-03   0.000000e+00
  6.645630e-04  -2.563600e-03   0.000000e+00
  7.176630e-04  -3.061430e-03   0.000000e+00
  7.682930e-04  -3.596300e-03   0.000000e+00
  8.164530e-04  -4.166460e-03   0.000000e+00
  8.621430e-04  -4.770140e-03   0.000000e+00
  9.053640e-04  -5.405570e-03   0.000000e+00
  9.461150e-04  -6.070990e-03   0.000000e+00
  9.843960e-04  -6.764630e-03   0.000000e+00
  1.020210e-03  -7.484740e-03   0.000000e+00
  1.053550e-03  -8.229540e-03   0.000000e+00
  1.084420e-03  -8.997280e-03   0.000000e+00
  1.112820e-03  -9.786190e-03   0.000000e+00
  1.138760e-03  -1.059450e-02   0.000000e+00
  1.162220e-03  -1.142050e-02   0.000000e+00
  1.183210e-03  -1.226230e-02   0.000000e+00
  1.201740e-03  -1.311820e-02   0.000000e+00
  1.217790e-03  -1.398650e-02   0.000000e+00
  1.231370e-03  -1.486540e-02   0.000000e+00
  1.242490e-03  -1.575310e-02   0.000000e+00
  1.251130e-03  -1.664790e-02   0.000000e+00
  1.257310e-03  -1.754790e-02   0.000000e+00
  1.261070e-03  -1.845140e-02   0.000000e+00
  1.262530e-03  -1.935790e-02   0.000000e+00
  0.000000e+00   0.000000e+00   0.000000e+00
  8.882410e-05  -4.745180e-05   0.000000e+00
  1.728690e-04  -1.311470e-04   0.000000e+00
  2.563100e-04  -2.689060e-04   0.000000e+00
  3.367580e-04  -4.578270e-04   0.000000e+00
  4.143850e-04  -6.961810e-04   0.000000e+00
  4.891820e-04  -9.821570e-04   0.000000e+00
  5.611570e-04  -1.314000e-03   0.000000e+00
  6.303110e-04  -1.689950e-03   0.000000e+00
  6.966410e-04  -2.108230e-03   0.000000e+00
  7.601490e-04  -2.567090e-03   0.000000e+00
  8.208350e-04  -3.064760e-03   0.000000e+00
  8.786980e-04  -3.599480e-03   0.000000e+00
  9.337380e-04  -4.169480e-03   0.000000e+00
  9.859560e-04  -4.773000e-03   0.000000e+00
  1.035350e-03  -5.408270e-03   0.000000e+00
  1.081920e-03  -6.073530e-03   0.000000e+00
  1.125670e-03  -6.767010e-03   0.000000e+00
  1.166600e-03  -7.486960e-03   0.000000e+00
  1.204710e-03  -8.231610e-03   0.000000e+00
  1.239990e-03  -8.999190e-03   0.000000e+00
  1.272450e-03  -9.787940e-03   0.000000e+00
  1.302080e-03  -1.059610e-02   0.000000e+00
  1.328900e-03  -1.142190e-02   0.000000e+00
  1.352890e-03  -1.226360e-02   0.000000e+00
  1.374060e-03  -1.311930e-02   0.000000e+00
  1.392410e-03  -1.398750e-02   0.000000e+00
  1.407930e-03  -1.486620e-02   0.000000e+00
  1.420630e-03  -1.575370e-02   0.000000e+00
  1.430510e-03  -1.664830e-02   0.000000e+00
  1.437540e-03  -1.754820e-02   0.000000e+00
  1.441980e-03  -1.845150e-02   0.000000e+00
  1.443800e-03  -1.935820e-02   0.000000e+00

CELL_DATA 512
SCALARS Sigma_X float 1
LOOKUP_TABLE default
 -5.461600e+07
 -5.060340e+07
 -5.002560e+07
 -4.827110e+07
 -4.657520e+07
 -4.487840e+07
 -4.318550e+07
 -4.149190e+07
 -3.979840e+07
 -3.810480e+07
 -3.641130e+07
 -3.471770e+07
 -3.302420e+07
 -3.133060e+07
 -2.963710e+07
 -2.794350e+07
 -2.625000e+07
 -2.455650e+07
 -2.286290e+07
 -2.116940e+07
 -1.947580e+07
 -1.778230e+07
 -1.608870e+07
 -1.439520e+07
 -1.270160e+07
 -1.100810e+07
 -9.314580e+06
 -7.620920e+06
 -5.925790e+06
 -4.226220e+06
 -2.641470e+06
 -9.720710e+05
 -4.630630e+07
 -4.488750e+07
 -4.315160e+07
 -4.186660e+07
 -4.035770e+07
 -3.889620e+07
 -3.742710e+07
 -3.595970e+07
 -3.449190e+07
 -3.302420e+07
 -3.155650e+07
 -3.008870e+07
 -2.862100e+07
 -2.715320e+07
 -2.568550e+07
 -2.421770e+07
 -2.275000e+07
 -2.128230e+07
 -1.981450e+07
 -1.834680e+07
 -1.687900e+07
 -1.541130e+07
 -1.394350e+07
 -1.247580e+07
 -1.100810e+07
 -9.540330e+06
 -8.072560e+06
 -6.605060e+06
 -5.134610e+06
 -3.676530e+06
 -2.222100e+06
 -7.355180e+05
 -3.864730e+07
 -3.838230e+07
 -3.656260e+07
 -3.539360e+07
 -3.415580e+07
 -3.291040e+07
 -3.166970e+07
 -3.042730e+07
 -2.918550e+07
 -2.794350e+07
 -2.670160e+07
 -2.545970e+07
 -2.421770e+07
 -2.297580e+07
 -2.173390e+07
 -2.049190e+07
 -1.925000e+07
 -1.800810e+07
 -1.676610e+07
 -1.552420e+07
 -1.428230e+07
 -1.304030e+07
 -1.179840e+07
 -1.055650e+07
 -9.314520e+06
 -8.072570e+06
 -6.830680e+06
 -5.588590e+06
 -4.346710e+06
 -3.112300e+06
 -1.826490e+06
 -5.637970e+05
 -3.133610e+07
 -3.155200e+07
 -3.000080e+07
 -2.893630e+07
 -2.794630e+07
 -2.692700e+07
 -2.591140e+07
 -2.489520e+07
 -2.387900e+07
 -2.286290e+07
 -2.184680e+07
 -2.083060e+07
 -1.981450e+07
 -1.879840e+07
 -1.778230e+07
 -1.676610e+07
 -1.575000e+07
 -1.473390e+07
 -1.371770e+07
 -1.270160e+07
 -1.168550e+07
 -1.066940e+07
 -9.653230e+06
 -8.637100e+06
 -7.620970e+06
 -6.604830e+06
 -5.588710e+06
 -4.572400e+06
 -3.558520e+06
 -2.542750e+06
 -1.456870e+06
 -4.286190e+05
 -2.422480e+07
 -2.459010e+07
 -2.339870e+07
 -2.249810e+07
 -2.173330e+07
 -2.094410e+07
 -2.015320e+07
 -1.936290e+07
 -1.857260e+07
 -1.778230e+07
 -1.699190e+07
 -1.620160e+07
 -1.541130e+07
 -1.462100e+07
 -1.383060e+07
 -1.304030e+07
 -1.225000e+07
 -1.145970e+07
 -1.066940e+07
 -9.879030e+06
 -9.088710e+06
 -8.298390e+06
 -7.508060e+06
 -6.717740e+06
 -5.927420e+06
 -5.137100e+06
 -4.346710e+06
 -3.556420e+06
 -2.769130e+06
 -1.973290e+06
 -1.109790e+06
 -3.157340e+05
 -1.723360e+07
 -1.757810e+07
 -1.674960e+07
 -1.606900e+07
 -1.552130e+07
 -1.496060e+07
 -1.439510e+07
 -1.383060e+07
 -1.326610e+07
 -1.270160e+07
 -1.213710e+07
 -1.157260e+07
 -1.100810e+07
 -1.044350e+07
 -9.879030e+06
 -9.314520e+06
 -8.750000e+06
 -8.185480e+06
 -7.620970e+06
 -7.056450e+06
 -6.491940e+06
 -5.927420e+06
 -5.362900e+06
 -4.798390e+06
 -4.233870e+06
 -3.669360e+06
 -3.104740e+06
 -2.540450e+06
 -1.978630e+06
 -1.406340e+06
 -7.803260e+05
 -2.169620e+05
 -1.031450e+07
 -1.054940e+07
 -1.006420e+07
 -9.641890e+06
 -9.311510e+06
 -8.976530e+06
 -8.637100e+06
 -8.298370e+06
 -7.959680e+06
 -7.620970e+06
 -7.282260e+06
 -6.943550e+06
 -6.604840e+06
 -6.266130e+06
 -5.927420e+06
 -5.588710e+06
 -5.250000e+06
 -4.911290e+06
 -4.572580e+06
 -4.233870e+06
 -3.895160e+06
 -3.556450e+06
 -3.217740e+06
 -2.879030e+06
 -2.540320e+06
 -2.201610e+06
 -1.862830e+06
 -1.524360e+06
 -1.187420e+06
 -8.423350e+05
 -4.632880e+05
 -1.269680e+05
 -3.434080e+06
 -3.516660e+06
 -3.357120e+06
 -3.214150e+06
 -3.103610e+06
 -2.992200e+06
 -2.879040e+06
 -2.766120e+06
 -2.653230e+06
 -2.540320e+06
 -2.427420e+06
 -2.314520e+06
 -2.201610e+06
 -2.088710e+06
 -1.975810e+06
 -1.862900e+06
 -1.750000e+06
 -1.637100e+06
 -1.524190e+06
 -1.411290e+06
 -1.298390e+06
 -1.185480e+06
 -1.072580e+06
 -9.596770e+05
 -8.467750e+05
 -7.338710e+05
 -6.209380e+05
 -5.081350e+05
 -3.958420e+05
 -2.805140e+05
 -1.536170e+05
 -4.180740e+04
  3.434080e+06
  3.516660e+06
  3.357120e+06
  3.214150e+06
  3.103610e+06
  2.992200e+06
  2.879040e+06
  2.766120e+06
  2.653230e+06
  2.540320e+06
  2.427420e+06
  2.314520e+06
  2.201610e+06
  2.088710e+06
  1.975810e+06
  1.862900e+06
  1.750000e+06
  1.637100e+06
  1.524190e+06
  1.411290e+06
  1.298390e+06
  1.185480e+06
  1.072580e+06
  9.596770e+05
  8.467750e+05
  7.338710e+05
  6.209380e+05
  5.081350e+05
  3.958420e+05
  2.805140e+05
  1.536170e+05
  4.180740e+04
  1.031450e+07
  1.054940e+07
  1.006420e+07
  9.641890e+06
  9.311510e+06
  8.976530e+06
  8.637100e+06
  8.298370e+06
  7.959680e+06
  7.620970e+06
  7.282260e+06
  6.943550e+06
  6.604840e+06
  6.266130e+06
  5.927420e+06
  5.588710e+06
  5.250000e+06
  4.911290e+06
  4.572580e+06
  4.233870e+06
  3.895160e+06
  3.556450e+06
  3.217740e+06
  2.879030e+06
  2.540320e+06
  2.201610e+06
  1.862830e+06
  1.524360e+06
  1.187420e+06
  8.423350e+05
  4.632880e+05
  1.269680e+05
  1.723360e+07
  1.757810e+07
  1.674960e+07
  1.606900e+07
  1.552130e+07
  1.496060e+07
  1.439510e+07
  1.383060e+07
  1.326610e+07
  1.270160e+07
  1.213710e+07
  1.157260e+07
  1.100810e+07
  1.044350e+07
  9.879030e+06
  9.314520e+06
  8.750000e+06
  8.185480e+06
  7.620970e+06
  7.056450e+06
  6.491940e+06
  5.927420e+06
  5.362900e+06
  4.798390e+06
  4.233870e+06
  3.669360e+06
  3.104740e+06
  2.540450e+06
  1.978630e+06
  1.406340e+06
  7.803260e+05
  2.169620e+05
  2.422480e+07
  2.459010e+07
  2.339870e+07
  2.249810e+07
  2.173330e+07
  2.094410e+07
  2.015320e+07
  1.936290e+07
  1.857260e+07
  1.778230e+07
  1.699190e+07
  1.620160e+07
  1.541130e+07
  1.462100e+07
  1.383060e+07
  1.304030e+07
  1.225000e+07
  1.145970e+07
  1.066940e+07
  9.879030e+06
  9.088710e+06
  8.298390e+06
  7.508060e+06
  6.717740e+06
  5.927420e+06
  5.137100e+06
  4.346710e+06
  3.556420e+06
  2.769130e+06
  1.973290e+06
  1.109790e+06
  3.157340e+05
  3.133610e+07
  3.155200e+07
  3.000080e+07
  2.893630e+07
  2.794630e+07
  2.692700e+07
  2.591140e+07
  2.489520e+07
  2.387900e+07
  2.286290e+07
  2.184680e+07
  2.083060e+07
  1.981450e+07
  1.879840e+07
  1.778230e+07
  1.676610e+07
  1.575000e+07
  1.473390e+07
  1.371770e+07
  1.270160e+07
  1.168550e+07
  1.066940e+07
  9.653230e+06
  8.637100e+06
  7.620970e+06
  6.604830e+06
  5.588710e+06
  4.572400e+06
  3.558520e+06
  2.542750e+06
  1.456870e+06
  4.286190e+05
  3.864730e+07
  3.838230e+07
  3.656260e+07
  3.539360e+07
  3.415580e+07
  3.291040e+07
  3.166970e+07
  3.042730e+07
  2.918550e+07
  2.794350e+07
  2.670160e+07
  2.545970e+07
  2.421770e+07
  2.297580e+07
  2.173390e+07
  2.049190e+07
  1.925000e+07
  1.800810e+07
  1.676610e+07
  1.552420e+07
  1.428230e+07
  1.304030e+07
  1.179840e+07
  1.055650e+07
  9.314520e+06
  8.072570e+06
  6.830680e+06
  5.588590e+06
  4.346710e+06
  3.112300e+06
  1.826490e+06
  5.637970e+05
  4.630630e+07
  4.488750e+07
  4.315160e+07
  4.186660e+07
  4.035770e+07
  3.889620e+07
  3.742710e+07
  3.595970e+07
  3.449190e+07
  3.302420e+07
  3.155650e+07
  3.008870e+07
  2.862100e+07
  2.715320e+07
  2.568550e+07
  2.421770e+07
  2.275000e+07
  2.128230e+07
  1.981450e+07
  1.834680e+07
  1.687900e+07
  1.541130e+07
  1.394350e+07
  1.247580e+07
  1.100810e+07
  9.540330e+06
  8.072560e+06
  6.605060e+06
  5.134610e+06
  3.676530e+06
  2.222100e+06
  7.355180e+05
  5.461600e+07
  5.060340e+07
  5.002560e+07
  4.827110e+07
  4.657520e+07
  4.487840e+07
  4.318550e+07
  4.149190e+07
  3.979840e+07
  3.810480e+07
  3.641130e+07
  3.471770e+07
  3.302420e+07
  3.133060e+07
  2.963710e+07
  2.794350e+07
  2.625000e+07
  2.455650e+07
  2.286290e+07
  2.116940e+07
  1.947580e+07
  1.778230e+07
  1.608870e+07
  1.439520e+07
  1.270160e+07
  1.100810e+07
  9.314580e+06
  7.620920e+06
  5.925790e+06
  4.226220e+06
  2.641470e+06
  9.720710e+05
SCALARS Sigma_Y float 1
LOOKUP_TABLE default
 -6.781780e+06
  1.604130e+06
 -3.600180e+05
  7.688400e+04
 -1.651760e+04
  3.641100e+03
 -8.083920e+02
  1.809340e+02
 -4.143010e+01
  9.688260e+00
 -2.295490e+00
  5.517030e-01
 -1.346960e-01
  3.327750e-02
 -8.284880e-03
  2.101760e-03
 -5.897110e-04
  4.075040e-04
 -1.139870e-03
  4.429440e-03
 -1.792010e-02
  7.437880e-02
 -3.119350e-01
  1.323570e+00
 -5.874290e+00
  2.708950e+01
 -1.235110e+02
  5.735510e+02
 -2.896920e+03
  1.450940e+04
 -6.373170e+04
  2.660920e+05
 -6.099280e+06
  9.107790e+05
 -5.112510e+03
 -2.683070e+04
  1.011340e+04
 -3.325240e+03
  9.287990e+02
 -2.274450e+02
  5.503080e+01
 -1.363250e+01
  3.311590e+00
 -7.819960e-01
  1.841070e-01
 -4.366530e-02
  1.040510e-02
 -2.524820e-03
  6.865410e-04
 -5.100990e-04
  1.605270e-03
 -6.655230e-03
  2.921680e-02
 -1.270520e-01
  5.159740e-01
 -2.101770e+00
  9.637150e+00
 -4.201450e+01
  1.379580e+02
 -4.009950e+02
  1.401760e+03
  2.085020e+03
 -8.006260e+04
  3.997140e+05
 -5.375930e+06
  4.594820e+05
  1.464500e+05
 -3.601010e+04
  4.695370e+03
 -8.619680e+02
  4.386530e+01
  6.461630e+01
 -2.911600e+01
  8.660030e+00
 -2.482720e+00
  7.095280e-01
 -1.923410e-01
  5.012410e-02
 -1.287530e-02
  3.286060e-03
 -9.405340e-04
  6.649190e-04
 -1.936750e-03
  7.434150e-03
 -2.686950e-02
  9.119150e-02
 -3.538630e-01
  1.304300e+00
 -1.491230e+00
 -1.255660e+01
  4.704970e+01
 -2.012280e+02
  2.901570e+03
 -9.318520e+03
 -7.899920e+04
  4.581120e+05
 -4.557780e+06
  1.757760e+05
  1.937330e+05
 -2.016000e+04
 -2.741690e+03
  5.990190e+02
 -1.642550e+02
  7.760860e+01
 -1.837340e+01
  1.914050e+00
  1.053550e-01
 -1.316920e-01
  6.220180e-02
 -2.292920e-02
  7.196840e-03
 -2.124530e-03
  6.720270e-04
 -4.443270e-04
  8.566220e-04
 -1.974890e-03
  3.613470e-03
 -1.205670e-03
 -1.500860e-01
  1.284380e+00
 -3.400270e+00
 -5.582660e-01
 -4.502740e+01
  2.620200e+02
  2.724780e+03
 -1.657000e+04
 -6.896640e+04
  4.551350e+05
 -3.645750e+06
  1.616700e+04
  1.852960e+05
 -3.976830e+03
 -6.307310e+03
  6.435130e+02
  5.710560e+00
  1.102510e+01
  7.458650e-01
 -2.505820e+00
  8.604720e-01
 -1.938140e-01
  4.161390e-02
 -7.788330e-03
  6.815280e-04
  2.111050e-04
 -1.794240e-04
 -2.953040e-05
  3.718630e-04
 -1.907380e-03
  9.283050e-03
 -4.657130e-02
  8.365500e-02
  3.923640e-01
 -5.386370e-01
 -6.595900e+00
 -7.226980e+01
  5.832530e+02
  1.888510e+03
 -1.897290e+04
 -5.479800e+04
  4.032800e+05
 -2.657800e+06
 -5.177330e+04
  1.469230e+05
  5.113260e+03
 -6.408510e+03
  2.345170e+02
  1.573920e+02
 -2.431570e+01
  4.668680e+00
 -1.607440e+00
  2.024490e-01
  3.941160e-02
 -2.254220e-02
  7.017690e-03
 -2.130360e-03
  5.857110e-04
 -1.807030e-04
  6.556710e-05
 -3.345610e-04
  1.041540e-03
 -6.919280e-04
 -2.357150e-02
  9.415220e-02
 -3.365670e-02
  1.726570e+00
 -1.403380e+01
 -5.758050e+01
  6.497490e+02
  1.034180e+03
 -1.697850e+04
 -3.916360e+04
  3.141820e+05
 -1.615910e+06
 -5.608740e+04
  9.297100e+04
  6.606060e+03
 -4.463370e+03
 -3.845560e+01
  1.695420e+02
 -2.435350e+01
  1.960560e+00
 -1.813590e-02
 -2.474250e-01
  1.193340e-01
 -2.907920e-02
  4.462750e-03
 -3.002450e-04
 -1.589250e-04
  5.918730e-05
 -3.092770e-05
 -3.018470e-04
  1.766970e-03
 -5.788100e-03
  2.001850e-03
  2.965310e-02
 -6.638640e-02
  1.985150e+00
 -1.381040e+01
 -3.171770e+01
  4.881000e+02
  4.398670e+02
 -1.159620e+04
 -2.334400e+04
  1.988800e+05
 -5.421410e+05
 -2.283830e+04
  3.169890e+04
  2.820580e+03
 -1.574400e+03
 -5.100400e+01
  6.970600e+01
 -9.156820e+00
  2.096950e-01
  2.348280e-01
 -1.558360e-01
  5.388390e-02
 -1.025640e-02
  6.464600e-04
  3.339180e-04
 -2.130640e-04
  5.028690e-05
 -8.027090e-05
 -1.183190e-04
  7.277950e-04
 -2.955620e-03
  4.532220e-03
  5.718350e-04
 -1.728780e-02
  8.167530e-01
 -5.654550e+00
 -9.518280e+00
  1.793520e+02
  1.110580e+02
 -4.103570e+03
 -7.739790e+03
  6.801420e+04
  5.421410e+05
  2.283830e+04
 -3.169890e+04
 -2.820580e+03
  1.574400e+03
  5.100400e+01
 -6.970600e+01
  9.156820e+00
 -2.096960e-01
 -2.348450e-01
  1.558180e-01
 -5.387370e-02
  1.026690e-02
 -6.702540e-04
 -3.693370e-04
  1.822230e-04
 -9.947970e-05
 -1.872510e-05
  4.881120e-05
 -7.631880e-04
  2.952220e-03
 -4.453020e-03
 -5.816330e-04
  1.715820e-02
 -8.167910e-01
  5.654600e+00
  9.518290e+00
 -1.793520e+02
 -1.110580e+02
  4.103570e+03
  7.739790e+03
 -6.801420e+04
  1.615910e+06
  5.608740e+04
 -9.297100e+04
 -6.606060e+03
  4.463370e+03
  3.845550e+01
 -1.695420e+02
  2.435350e+01
 -1.960560e+00
  1.812670e-02
  2.474090e-01
 -1.193270e-01
  2.909550e-02
 -4.464170e-03
  2.616810e-04
  1.222460e-04
 -8.518400e-05
 -2.173770e-05
  2.442850e-04
 -1.802110e-03
  5.845550e-03
 -1.930240e-03
 -2.967810e-02
  6.631340e-02
 -1.985160e+00
  1.381040e+01
  3.171770e+01
 -4.881000e+02
 -4.398670e+02
  1.159620e+04
  2.334400e+04
 -1.988800e+05
  2.657800e+06
  5.177330e+04
 -1.469230e+05
 -5.113260e+03
  6.408510e+03
 -2.345170e+02
 -1.573920e+02
  2.431570e+01
 -4.668680e+00
  1.607420e+00
 -2.024720e-01
 -3.942720e-02
  2.254690e-02
 -7.014890e-03
  2.099180e-03
 -6.174900e-04
  1.398400e-04
 -1.272070e-04
  2.690200e-04
 -1.119790e-03
  6.948620e-04
  2.363960e-02
 -9.414370e-02
  3.360230e-02
 -1.726590e+00
  1.403380e+01
  5.758040e+01
 -6.497490e+02
 -1.034180e+03
  1.697850e+04
  3.916360e+04
 -3.141820e+05
  3.645750e+06
 -1.616700e+04
 -1.852960e+05
  3.976830e+03
  6.307310e+03
 -6.435130e+02
 -5.710560e+00
 -1.102510e+01
 -7.458690e-01
  2.505800e+00
 -8.604950e-01
  1.938150e-01
 -4.161460e-02
  7.779230e-03
 -7.027470e-04
 -2.623770e-04
  1.359090e-04
 -2.145320e-05
 -4.346600e-04
  1.870530e-03
 -9.282290e-03
  4.658500e-02
 -8.368620e-02
 -3.924430e-01
  5.386450e-01
  6.595900e+00
  7.226980e+01
 -5.832530e+02
 -1.888510e+03
  1.897290e+04
  5.479800e+04
 -4.032800e+05
  4.557780e+06
 -1.757760e+05
 -1.937330e+05
  2.016000e+04
  2.741690e+03
 -5.990190e+02
  1.642550e+02
 -7.760860e+01
  1.837340e+01
 -1.914060e+00
 -1.053710e-01
  1.316760e-01
 -6.220830e-02
  2.292370e-02
 -7.195980e-03
  2.105520e-03
 -6.817130e-04
  4.454050e-04
 -8.989780e-04
  1.942970e-03
 -3.642450e-03
  1.186930e-03
  1.500910e-01
 -1.284400e+00
  3.400240e+00
  5.582740e-01
  4.502740e+01
 -2.620200e+02
 -2.724780e+03
  1.657000e+04
  6.896640e+04
 -4.551350e+05
  5.375930e+06
 -4.594820e+05
 -1.464500e+05
  3.601010e+04
 -4.695370e+03
  8.619680e+02
 -4.386530e+01
 -6.461630e+01
  2.911600e+01
 -8.660050e+00
  2.482700e+00
 -7.095350e-01
  1.923490e-01
 -5.011240e-02
  1.286210e-02
 -3.307030e-03
  9.341770e-04
 -6.461560e-04
  1.947760e-03
 -7.457830e-03
  2.685920e-02
 -9.120290e-02
  3.538530e-01
 -1.304260e+00
  1.491230e+00
  1.255660e+01
 -4.704970e+01
  2.012280e+02
 -2.901570e+03
  9.318520e+03
  7.899920e+04
 -4.581120e+05
  6.099280e+06
 -9.107790e+05
  5.112510e+03
  2.683070e+04
 -1.011340e+04
  3.325240e+03
 -9.287990e+02
  2.274450e+02
 -5.503080e+01
  1.363250e+01
 -3.311590e+00
  7.819890e-01
 -1.841150e-01
  4.366250e-02
 -1.042160e-02
  2.502940e-03
 -7.029010e-04
  5.163320e-04
 -1.601660e-03
  6.644930e-03
 -2.920190e-02
  1.270630e-01
 -5.159770e-01
  2.101780e+00
 -9.637150e+00
  4.201460e+01
 -1.379570e+02
  4.009950e+02
 -1.401760e+03
 -2.085020e+03
  8.006260e+04
 -3.997140e+05
  6.781780e+06
 -1.604130e+06
  3.600180e+05
 -7.688400e+04
  1.651760e+04
 -3.641100e+03
  8.083920e+02
 -1.809340e+02
  4.143010e+01
 -9.688260e+00
  2.295490e+00
 -5.517030e-01
  1.347050e-01
 -3.327280e-02
  8.282480e-03
 -2.091180e-03
  5.940760e-04
 -4.105910e-04
  1.139830e-03
 -4.443350e-03
  1.789670e-02
 -7.438050e-02
  3.119710e-01
 -1.323540e+00
  5.874300e+00
 -2.708950e+01
  1.235110e+02
 -5.735510e+02
  2.896920e+03
 -1.450940e+04
  6.373170e+04
 -2.660920e+05
SCALARS Tau_XY float 1
LOOKUP_TABLE default
 -2.738030e+06
  8.200360e+05
 -3.781540e+05
 -1.813490e+05
 -2.165230e+05
 -2.083780e+05
 -2.098660e+05
 -2.096410e+05
 -2.096860e+05
 -2.096760e+05
 -2.096780e+05
 -2.096770e+05
 -2.096770e+05
 -2.096770e+05
 -2.096770e+05
 -2.096770e+05
 -2.096770e+05
 -2.096770e+05
 -2.096770e+05
 -2.096770e+05
 -2.096770e+05
 -2.096770e+05
 -2.096770e+05
 -2.096780e+05
 -2.096770e+05
 -2.096830e+05
 -2.096090e+05
 -2.099760e+05
 -2.088000e+05
 -2.201210e+05
 -1.344130e+05
 -2.751400e+05
 -2.220940e+06
 -1.103720e+05
 -4.227910e+05
 -5.644430e+05
 -5.185120e+05
 -5.278390e+05
 -5.252220e+05
 -5.259300e+05
 -5.257830e+05
 -5.258120e+05
 -5.258050e+05
 -5.258070e+05
 -5.258060e+05
 -5.258060e+05
 -5.258060e+05
 -5.258060e+05
 -5.258060e+05
 -5.258060e+05
 -5.258060e+05
 -5.258060e+05
 -5.258060e+05
 -5.258060e+05
 -5.258070e+05
 -5.258060e+05
 -5.258120e+05
 -5.257790e+05
 -5.258650e+05
 -5.255320e+05
 -5.284740e+05
 -5.228650e+05
 -4.565860e+05
 -5.955390e+05
 -1.596880e+06
 -7.587060e+05
 -6.451460e+05
 -8.245640e+05
 -7.965370e+05
 -7.964240e+05
 -7.968930e+05
 -7.967060e+05
 -7.967990e+05
 -7.967680e+05
 -7.967760e+05
 -7.967740e+05
 -7.967740e+05
 -7.967740e+05
 -7.967740e+05
 -7.967740e+05
 -7.967740e+05
 -7.967740e+05
 -7.967740e+05
 -7.967740e+05
 -7.967740e+05
 -7.967740e+05
 -7.967740e+05
 -7.967750e+05
 -7.967720e+05
 -7.967740e+05
 -7.967390e+05
 -7.967690e+05
 -7.995270e+05
 -7.875210e+05
 -7.537570e+05
 -8.463330e+05
 -1.015990e+06
 -1.196780e+06
 -9.151630e+05
 -1.028940e+06
 -1.026540e+06
 -1.021560e+06
 -1.022750e+06
 -1.022550e+06
 -1.022590e+06
 -1.022580e+06
 -1.022580e+06
 -1.022580e+06
 -1.022580e+06
 -1.022580e+06
 -1.022580e+06
 -1.022580e+06
 -1.022580e+06
 -1.022580e+06
 -1.022580e+06
 -1.022580e+06
 -1.022580e+06
 -1.022580e+06
 -1.022580e+06
 -1.022580e+06
 -1.022580e+06
 -1.022590e+06
 -1.022510e+06
 -1.022820e+06
 -1.023990e+06
 -1.013530e+06
 -1.011700e+06
 -1.040930e+06
 -5.334900e+05
 -1.485270e+06
 -1.167990e+06
 -1.195820e+06
 -1.206550e+06
 -1.202690e+06
 -1.203250e+06
 -1.203240e+06
 -1.203220e+06
 -1.203230e+06
 -1.203230e+06
 -1.203230e+06
 -1.203230e+06
 -1.203230e+06
 -1.203230e+06
 -1.203230e+06
 -1.203230e+06
 -1.203230e+06
 -1.203230e+06
 -1.203230e+06
 -1.203230e+06
 -1.203230e+06
 -1.203230e+06
 -1.203230e+06
 -1.203230e+06
 -1.203230e+06
 -1.203180e+06
 -1.203460e+06
 -1.203090e+06
 -1.198430e+06
 -1.222950e+06
 -1.188240e+06
 -1.679390e+05
 -1.668340e+06
 -1.372250e+06
 -1.326180e+06
 -1.339090e+06
 -1.338800e+06
 -1.338690e+06
 -1.338730e+06
 -1.338700e+06
 -1.338710e+06
 -1.338710e+06
 -1.338710e+06
 -1.338710e+06
 -1.338710e+06
 -1.338710e+06
 -1.338710e+06
 -1.338710e+06
 -1.338710e+06
 -1.338710e+06
 -1.338710e+06
 -1.338710e+06
 -1.338710e+06
 -1.338710e+06
 -1.338710e+06
 -1.338710e+06
 -1.338710e+06
 -1.338720e+06
 -1.338750e+06
 -1.337380e+06
 -1.339610e+06
 -1.383550e+06
 -1.294240e+06
  7.581860e+04
 -1.775590e+06
 -1.513400e+06
 -1.416290e+06
 -1.426420e+06
 -1.429500e+06
 -1.429060e+06
 -1.429030e+06
 -1.429030e+06
 -1.429030e+06
 -1.429030e+06
 -1.429030e+06
 -1.429030e+06
 -1.429030e+06
 -1.429030e+06
 -1.429030e+06
 -1.429030e+06
 -1.429030e+06
 -1.429030e+06
 -1.429030e+06
 -1.429030e+06
 -1.429030e+06
 -1.429030e+06
 -1.429030e+06
 -1.429030e+06
 -1.429040e+06
 -1.429090e+06
 -1.428840e+06
 -1.426960e+06
 -1.434940e+06
 -1.491440e+06
 -1.362910e+06
  1.974520e+05
 -1.824990e+06
 -1.585110e+06
 -1.462400e+06
 -1.469820e+06
 -1.474810e+06
 -1.474280e+06
 -1.474170e+06
 -1.474200e+06
 -1.474190e+06
 -1.474190e+06
 -1.474190e+06
 -1.474190e+06
 -1.474190e+06
 -1.474190e+06
 -1.474190e+06
 -1.474190e+06
 -1.474190e+06
 -1.474190e+06
 -1.474190e+06
 -1.474190e+06
 -1.474190e+06
 -1.474190e+06
 -1.474190e+06
 -1.474190e+06
 -1.474200e+06
 -1.474280e+06
 -1.473860e+06
 -1.471780e+06
 -1.482980e+06
 -1.545590e+06
 -1.396670e+06
  1.974520e+05
 -1.824990e+06
 -1.585110e+06
 -1.462400e+06
 -1.469820e+06
 -1.474810e+06
 -1.474280e+06
 -1.474170e+06
 -1.474200e+06
 -1.474190e+06
 -1.474190e+06
 -1.474190e+06
 -1.474190e+06
 -1.474190e+06
 -1.474190e+06
 -1.474190e+06
 -1.474190e+06
 -1.474190e+06
 -1.474190e+06
 -1.474190e+06
 -1.474190e+06
 -1.474190e+06
 -1.474190e+06
 -1.474190e+06
 -1.474190e+06
 -1.474200e+06
 -1.474280e+06
 -1.473860e+06
 -1.471780e+06
 -1.482980e+06
 -1.545590e+06
 -1.396670e+06
  7.581860e+04
 -1.775590e+06
 -1.513400e+06
 -1.416290e+06
 -1.426420e+06
 -1.429500e+06
 -1.429060e+06
 -1.429030e+06
 -1.429030e+06
 -1.429030e+06
 -1.429030e+06
 -1.429030e+06
 -1.429030e+06
 -1.429030e+06
 -1.429030e+06
 -1.429030e+06
 -1.429030e+06
 -1.429030e+06
 -1.429030e+06
 -1.429030e+06
 -1.429030e+06
 -1.429030e+06
 -1.429030e+06
 -1.429030e+06
 -1.429030e+06
 -1.429040e+06
 -1.429090e+06
 -1.428840e+06
 -1.426960e+06
 -1.434940e+06
 -1.491440e+06
 -1.362910e+06
 -1.679390e+05
 -1.668340e+06
 -1.372250e+06
 -1.326180e+06
 -1.339090e+06
 -1.338800e+06
 -1.338690e+06
 -1.338730e+06
 -1.338700e+06
 -1.338710e+06
 -1.338710e+06
 -1.338710e+06
 -1.338710e+06
 -1.338710e+06
 -1.338710e+06
 -1.338710e+06
 -1.338710e+06
 -1.338710e+06
 -1.338710e+06
 -1.338710e+06
 -1.338710e+06
 -1.338710e+06
 -1.338710e+06
 -1.338710e+06
 -1.338710e+06
 -1.338710e+06
 -1.338720e+06
 -1.338750e+06
 -1.337380e+06
 -1.339610e+06
 -1.383550e+06
 -1.294240e+06
 -5.334900e+05
 -1.485270e+06
 -1.167990e+06
 -1.195820e+06
 -1.206550e+06
 -1.202690e+06
 -1.203250e+06
 -1.203240e+06
 -1.203220e+06
 -1.203230e+06
 -1.203230e+06
 -1.203230e+06
 -1.203230e+06
 -1.203230e+06
 -1.203230e+06
 -1.203230e+06
 -1.203230e+06
 -1.203230e+06
 -1.203230e+06
 -1.203230e+06
 -1.203230e+06
 -1.203230e+06
 -1.203230e+06
 -1.203230e+06
 -1.203230e+06
 -1.203230e+06
 -1.203180e+06
 -1.203460e+06
 -1.203090e+06
 -1.198430e+06
 -1.222950e+06
 -1.188240e+06
 -1.015990e+06
 -1.196780e+06
 -9.151630e+05
 -1.028940e+06
 -1.026540e+06
 -1.021560e+06
 -1.022750e+06
 -1.022550e+06
 -1.022590e+06
 -1.022580e+06
 -1.022580e+06
 -1.022580e+06
 -1.022580e+06
 -1.022580e+06
 -1.022580e+06
 -1.022580e+06
 -1.022580e+06
 -1.022580e+06
 -1.022580e+06
 -1.022580e+06
 -1.022580e+06
 -1.022580e+06
 -1.022580e+06
 -1.022580e+06
 -1.022580e+06
 -1.022590e+06
 -1.022510e+06
 -1.022820e+06
 -1.023990e+06
 -1.013530e+06
 -1.011700e+06
 -1.040930e+06
 -1.596880e+06
 -7.587060e+05
 -6.451460e+05
 -8.245640e+05
 -7.965370e+05
 -7.964240e+05
 -7.968930e+05
 -7.967060e+05
 -7.967990e+05
 -7.967680e+05
 -7.967760e+05
 -7.967740e+05
 -7.967740e+05
 -7.967740e+05
 -7.967740e+05
 -7.967740e+05
 -7.967740e+05
 -7.967740e+05
 -7.967740e+05
 -7.967740e+05
 -7.967740e+05
 -7.967740e+05
 -7.967740e+05
 -7.967750e+05
 -7.967720e+05
 -7.967740e+05
 -7.967390e+05
 -7.967690e+05
 -7.995270e+05
 -7.875210e+05
 -7.537570e+05
 -8.463330e+05
 -2.220940e+06
 -1.103720e+05
 -4.227910e+05
 -5.644430e+05
 -5.185120e+05
 -5.278390e+05
 -5.252220e+05
 -5.259300e+05
 -5.257830e+05
 -5.258120e+05
 -5.258050e+05
 -5.258070e+05
 -5.258060e+05
 -5.258060e+05
 -5.258060e+05
 -5.258060e+05
 -5.258060e+05
 -5.258060e+05
 -5.258060e+05
 -5.258060e+05
 -5.258060e+05
 -5.258060e+05
 -5.258070e+05
 -5.258060e+05
 -5.258120e+05
 -5.257790e+05
 -5.258650e+05
 -5.255320e+05
 -5.284740e+05
 -5.228650e+05
 -4.565860e+05
 -5.955390e+05
 -2.738030e+06
  8.200360e+05
 -3.781540e+05
 -1.813490e+05
 -2.165230e+05
 -2.083780e+05
 -2.098660e+05
 -2.096410e+05
 -2.096860e+05
 -2.096760e+05
 -2.096780e+05
 -2.096770e+05
 -2.096770e+05
 -2.096770e+05
 -2.096770e+05
 -2.096770e+05
 -2.096770e+05
 -2.096770e+05
 -2.096770e+05
 -2.096770e+05
 -2.096770e+05
 -2.096770e+05
 -2.096770e+05
 -2.096780e+05
 -2.096770e+05
 -2.096830e+05
 -2.096090e+05
 -2.099760e+05
 -2.088000e+05
 -2.201210e+05
 -1.344130e+05
 -2.751400e+05
